<mxfile host="Electron" agent="Mozilla/5.0 (Windows NT 10.0; Win64; x64) AppleWebKit/537.36 (KHTML, like Gecko) draw.io/24.7.17 Chrome/128.0.6613.36 Electron/32.0.1 Safari/537.36" version="24.7.17" pages="9">
  <diagram name="SmartSprouter" id="hDEEQ5xtEGfPT3-RZj9g">
    <mxGraphModel dx="1562" dy="917" grid="1" gridSize="10" guides="1" tooltips="1" connect="1" arrows="1" fold="1" page="1" pageScale="1" pageWidth="850" pageHeight="1100" math="0" shadow="0">
      <root>
        <mxCell id="U9eNo2REIv2VFwj20mZj-0" />
        <mxCell id="U9eNo2REIv2VFwj20mZj-1" parent="U9eNo2REIv2VFwj20mZj-0" />
        <mxCell id="U9eNo2REIv2VFwj20mZj-2" value="Smart Sprouter - State Machine" style="shape=umlFrame;whiteSpace=wrap;html=1;width=240;height=20;boundedLbl=1;verticalAlign=middle;align=left;spacingLeft=5;fontColor=#000000;fillColor=default;" parent="U9eNo2REIv2VFwj20mZj-1" vertex="1">
          <mxGeometry x="20" y="20" width="810" height="980" as="geometry" />
        </mxCell>
        <mxCell id="U9eNo2REIv2VFwj20mZj-3" value="" style="edgeStyle=orthogonalEdgeStyle;rounded=0;orthogonalLoop=1;jettySize=auto;html=1;entryX=0;entryY=0.5;entryDx=0;entryDy=0;" parent="U9eNo2REIv2VFwj20mZj-1" source="U9eNo2REIv2VFwj20mZj-4" target="U9eNo2REIv2VFwj20mZj-32" edge="1">
          <mxGeometry relative="1" as="geometry">
            <mxPoint x="350" y="76.07" as="targetPoint" />
          </mxGeometry>
        </mxCell>
        <mxCell id="U9eNo2REIv2VFwj20mZj-4" value="" style="ellipse;fillColor=#000000;strokeColor=none;" parent="U9eNo2REIv2VFwj20mZj-1" vertex="1">
          <mxGeometry x="209.99999999999997" y="115" width="30" height="30" as="geometry" />
        </mxCell>
        <mxCell id="U9eNo2REIv2VFwj20mZj-6" style="edgeStyle=orthogonalEdgeStyle;rounded=0;orthogonalLoop=1;jettySize=auto;html=1;endArrow=open;endFill=0;fillColor=#f8cecc;strokeColor=#b85450;exitX=1;exitY=0.5;exitDx=0;exitDy=0;entryX=0;entryY=0.5;entryDx=0;entryDy=0;" parent="U9eNo2REIv2VFwj20mZj-1" source="U9eNo2REIv2VFwj20mZj-32" target="U9eNo2REIv2VFwj20mZj-8" edge="1">
          <mxGeometry relative="1" as="geometry">
            <Array as="points" />
            <mxPoint x="630" y="156.07" as="sourcePoint" />
            <mxPoint x="780" y="176.07" as="targetPoint" />
          </mxGeometry>
        </mxCell>
        <mxCell id="U9eNo2REIv2VFwj20mZj-7" value="hardware error" style="edgeLabel;html=1;align=center;verticalAlign=middle;resizable=0;points=[];fontColor=#990000;" parent="U9eNo2REIv2VFwj20mZj-6" vertex="1" connectable="0">
          <mxGeometry x="-0.8963" y="1" relative="1" as="geometry">
            <mxPoint x="34" y="-7" as="offset" />
          </mxGeometry>
        </mxCell>
        <UserObject label="&lt;font style=&quot;font-size: 14px;&quot;&gt;SystemInError&lt;/font&gt;" link="data:page/id,_jTvufelZweBmXb9jXtE" id="U9eNo2REIv2VFwj20mZj-8">
          <mxCell style="shape=umlState;rounded=1;verticalAlign=top;spacingTop=5;umlStateSymbol=collapseState;absoluteArcSize=1;arcSize=10;dashed=0;fontFamily=Helvetica;fontSize=12;align=center;strokeColor=#b85450;fillColor=none;html=1;fontColor=#990000;" parent="U9eNo2REIv2VFwj20mZj-1" vertex="1">
            <mxGeometry x="680" y="103.93" width="100" height="52.14" as="geometry" />
          </mxCell>
        </UserObject>
        <mxCell id="U9eNo2REIv2VFwj20mZj-11" style="edgeStyle=orthogonalEdgeStyle;rounded=0;orthogonalLoop=1;jettySize=auto;html=1;exitX=1;exitY=0.5;exitDx=0;exitDy=0;entryX=0.5;entryY=1;entryDx=0;entryDy=0;" parent="U9eNo2REIv2VFwj20mZj-1" source="U9eNo2REIv2VFwj20mZj-12" target="MdzHkoHfcGQ2sn3y5eH_-16" edge="1">
          <mxGeometry relative="1" as="geometry">
            <Array as="points">
              <mxPoint x="800" y="301" />
              <mxPoint x="800" y="950" />
              <mxPoint x="495" y="950" />
            </Array>
            <mxPoint x="579.9699999999998" y="533.0699999999999" as="sourcePoint" />
            <mxPoint x="1000" y="1208.0700000000002" as="targetPoint" />
          </mxGeometry>
        </mxCell>
        <mxCell id="MdzHkoHfcGQ2sn3y5eH_-27" style="edgeStyle=orthogonalEdgeStyle;rounded=0;orthogonalLoop=1;jettySize=auto;html=1;exitX=0.5;exitY=1;exitDx=0;exitDy=0;entryX=0.5;entryY=0;entryDx=0;entryDy=0;" parent="U9eNo2REIv2VFwj20mZj-1" source="U9eNo2REIv2VFwj20mZj-12" target="U9eNo2REIv2VFwj20mZj-14" edge="1">
          <mxGeometry relative="1" as="geometry" />
        </mxCell>
        <mxCell id="MdzHkoHfcGQ2sn3y5eH_-28" value="no unfinished process found" style="edgeLabel;html=1;align=center;verticalAlign=middle;resizable=0;points=[];" parent="MdzHkoHfcGQ2sn3y5eH_-27" vertex="1" connectable="0">
          <mxGeometry x="-0.6737" y="1" relative="1" as="geometry">
            <mxPoint x="4" as="offset" />
          </mxGeometry>
        </mxCell>
        <mxCell id="U9eNo2REIv2VFwj20mZj-12" value="&lt;font style=&quot;font-size: 14px;&quot;&gt;Initializing&lt;/font&gt;" style="html=1;align=center;verticalAlign=top;rounded=1;absoluteArcSize=1;arcSize=10;fontFamily=Helvetica;fontSize=12;fontColor=default;strokeColor=default;fillColor=default;" parent="U9eNo2REIv2VFwj20mZj-1" vertex="1">
          <mxGeometry x="409.97" y="276.07" width="170" height="50" as="geometry" />
        </mxCell>
        <mxCell id="U9eNo2REIv2VFwj20mZj-13" style="edgeStyle=orthogonalEdgeStyle;rounded=0;orthogonalLoop=1;jettySize=auto;html=1;exitX=0;exitY=0.3;exitDx=0;exitDy=0;entryX=1;entryY=0.3;entryDx=0;entryDy=0;" parent="U9eNo2REIv2VFwj20mZj-1" source="U9eNo2REIv2VFwj20mZj-14" target="U9eNo2REIv2VFwj20mZj-22" edge="1">
          <mxGeometry relative="1" as="geometry">
            <mxPoint x="830" y="429.99999999999994" as="targetPoint" />
          </mxGeometry>
        </mxCell>
        <UserObject label="&lt;font style=&quot;font-size: 14px;&quot;&gt;Idling&lt;/font&gt;" link="data:page/id,QI7EUJDXqZn1OK4-iWmv" id="U9eNo2REIv2VFwj20mZj-14">
          <mxCell style="shape=umlState;rounded=1;verticalAlign=top;spacingTop=5;umlStateSymbol=collapseState;absoluteArcSize=1;arcSize=10;dashed=0;fontFamily=Helvetica;fontSize=12;fontColor=default;align=center;strokeColor=default;fillColor=default;html=1;" parent="U9eNo2REIv2VFwj20mZj-1" vertex="1">
            <mxGeometry x="439.97" y="429.99999999999994" width="110.06" height="60" as="geometry" />
          </mxCell>
        </UserObject>
        <mxCell id="U9eNo2REIv2VFwj20mZj-18" style="edgeStyle=orthogonalEdgeStyle;rounded=0;orthogonalLoop=1;jettySize=auto;html=1;entryX=0;entryY=0.7;entryDx=0;entryDy=0;exitX=1;exitY=0.7;exitDx=0;exitDy=0;" parent="U9eNo2REIv2VFwj20mZj-1" source="U9eNo2REIv2VFwj20mZj-22" target="U9eNo2REIv2VFwj20mZj-14" edge="1">
          <mxGeometry relative="1" as="geometry">
            <mxPoint x="770" y="520" as="sourcePoint" />
          </mxGeometry>
        </mxCell>
        <mxCell id="U9eNo2REIv2VFwj20mZj-19" value="input:Left" style="edgeLabel;html=1;align=center;verticalAlign=middle;resizable=0;points=[];" parent="U9eNo2REIv2VFwj20mZj-18" vertex="1" connectable="0">
          <mxGeometry x="0.3893" y="-2" relative="1" as="geometry">
            <mxPoint x="-79" y="6" as="offset" />
          </mxGeometry>
        </mxCell>
        <UserObject label="&lt;span style=&quot;font-size: 14px;&quot;&gt;Informing&lt;/span&gt;" link="data:page/id,gkB5p-lJI1Ho-PFD50TE" id="U9eNo2REIv2VFwj20mZj-22">
          <mxCell style="shape=umlState;rounded=1;verticalAlign=top;spacingTop=5;umlStateSymbol=collapseState;absoluteArcSize=1;arcSize=10;dashed=0;fontFamily=Helvetica;fontSize=12;fontColor=default;align=center;strokeColor=default;fillColor=default;html=1;" parent="U9eNo2REIv2VFwj20mZj-1" vertex="1">
            <mxGeometry x="179.99999999999997" y="429.99999999999994" width="110" height="60" as="geometry" />
          </mxCell>
        </UserObject>
        <mxCell id="U9eNo2REIv2VFwj20mZj-23" value="input:Right" style="edgeLabel;html=1;align=center;verticalAlign=middle;resizable=0;points=[];fontColor=#000000;" parent="U9eNo2REIv2VFwj20mZj-1" vertex="1" connectable="0">
          <mxGeometry x="409.9955172413793" y="436.9979310344831" as="geometry">
            <mxPoint x="-3" y="1" as="offset" />
          </mxGeometry>
        </mxCell>
        <mxCell id="U9eNo2REIv2VFwj20mZj-29" value="unfinished process found &lt;br&gt;/LoadFoundProcess" style="edgeLabel;html=1;align=center;verticalAlign=middle;resizable=0;points=[];" parent="U9eNo2REIv2VFwj20mZj-1" vertex="1" connectable="0">
          <mxGeometry x="660.0048738602873" y="286.06846153846146" as="geometry" />
        </mxCell>
        <mxCell id="MdzHkoHfcGQ2sn3y5eH_-31" value="" style="edgeStyle=orthogonalEdgeStyle;rounded=0;orthogonalLoop=1;jettySize=auto;html=1;" parent="U9eNo2REIv2VFwj20mZj-1" source="U9eNo2REIv2VFwj20mZj-32" target="U9eNo2REIv2VFwj20mZj-12" edge="1">
          <mxGeometry relative="1" as="geometry" />
        </mxCell>
        <mxCell id="MdzHkoHfcGQ2sn3y5eH_-32" value="hardware ok &lt;br&gt;/searchUnfinishedProcess" style="edgeLabel;html=1;align=center;verticalAlign=middle;resizable=0;points=[];" parent="MdzHkoHfcGQ2sn3y5eH_-31" vertex="1" connectable="0">
          <mxGeometry x="-0.4931" y="1" relative="1" as="geometry">
            <mxPoint as="offset" />
          </mxGeometry>
        </mxCell>
        <UserObject label="&lt;span style=&quot;font-size: 14px;&quot;&gt;StartingUp&lt;/span&gt;" link="data:page/id,HuPK9h1Ta_5vS5yq8Nfy" id="U9eNo2REIv2VFwj20mZj-32">
          <mxCell style="shape=umlState;rounded=1;verticalAlign=top;spacingTop=5;umlStateSymbol=collapseState;absoluteArcSize=1;arcSize=10;dashed=0;fontFamily=Helvetica;fontSize=12;fontColor=default;align=center;strokeColor=default;fillColor=default;html=1;" parent="U9eNo2REIv2VFwj20mZj-1" vertex="1">
            <mxGeometry x="425" y="100" width="140" height="60" as="geometry" />
          </mxCell>
        </UserObject>
        <mxCell id="MdzHkoHfcGQ2sn3y5eH_-12" style="edgeStyle=orthogonalEdgeStyle;rounded=0;orthogonalLoop=1;jettySize=auto;html=1;exitX=1;exitY=0.616;exitDx=0;exitDy=0;exitPerimeter=0;entryX=1.004;entryY=0.794;entryDx=0;entryDy=0;entryPerimeter=0;" parent="U9eNo2REIv2VFwj20mZj-1" source="MdzHkoHfcGQ2sn3y5eH_-3" target="MdzHkoHfcGQ2sn3y5eH_-3" edge="1">
          <mxGeometry relative="1" as="geometry">
            <mxPoint x="410" y="693.9300000000001" as="targetPoint" />
            <mxPoint x="600" y="723.9300000000001" as="sourcePoint" />
            <Array as="points">
              <mxPoint x="650" y="703.9300000000001" />
              <mxPoint x="650" y="726.9300000000001" />
            </Array>
          </mxGeometry>
        </mxCell>
        <mxCell id="MdzHkoHfcGQ2sn3y5eH_-14" value="input:Left &lt;br&gt;/selectPrevParam" style="edgeLabel;html=1;align=center;verticalAlign=middle;resizable=0;points=[];" parent="MdzHkoHfcGQ2sn3y5eH_-12" vertex="1" connectable="0">
          <mxGeometry x="-0.3646" y="1" relative="1" as="geometry">
            <mxPoint x="-21" y="-14" as="offset" />
          </mxGeometry>
        </mxCell>
        <mxCell id="IYJ0MXfqv5EqJzjw4DDh-1" style="edgeStyle=orthogonalEdgeStyle;rounded=0;orthogonalLoop=1;jettySize=auto;html=1;exitX=0;exitY=0.3;exitDx=0;exitDy=0;entryX=1;entryY=0.3;entryDx=0;entryDy=0;" parent="U9eNo2REIv2VFwj20mZj-1" source="MdzHkoHfcGQ2sn3y5eH_-3" target="IYJ0MXfqv5EqJzjw4DDh-0" edge="1">
          <mxGeometry relative="1" as="geometry" />
        </mxCell>
        <mxCell id="IYJ0MXfqv5EqJzjw4DDh-3" value="input:Enter&lt;br&gt;[any param selected]" style="edgeLabel;html=1;align=center;verticalAlign=middle;resizable=0;points=[];" parent="IYJ0MXfqv5EqJzjw4DDh-1" vertex="1" connectable="0">
          <mxGeometry x="0.3963" y="-2" relative="1" as="geometry">
            <mxPoint x="44" y="-13" as="offset" />
          </mxGeometry>
        </mxCell>
        <UserObject label="&lt;span style=&quot;font-size: 14px;&quot;&gt;SettingProcess&lt;/span&gt;" link="data:page/id,u5ZRDdJ29QsrEfkCz90A" id="MdzHkoHfcGQ2sn3y5eH_-3">
          <mxCell style="shape=umlState;rounded=1;verticalAlign=top;spacingTop=5;umlStateSymbol=collapseState;absoluteArcSize=1;arcSize=10;dashed=0;fontFamily=Helvetica;fontSize=12;fontColor=default;align=center;strokeColor=default;fillColor=default;html=1;" parent="U9eNo2REIv2VFwj20mZj-1" vertex="1">
            <mxGeometry x="439.97" y="623.9300000000001" width="110" height="130" as="geometry" />
          </mxCell>
        </UserObject>
        <mxCell id="MdzHkoHfcGQ2sn3y5eH_-8" style="edgeStyle=orthogonalEdgeStyle;rounded=0;orthogonalLoop=1;jettySize=auto;html=1;exitX=0.15;exitY=0.95;exitDx=0;exitDy=0;exitPerimeter=0;entryX=0.15;entryY=0.05;entryDx=0;entryDy=0;entryPerimeter=0;" parent="U9eNo2REIv2VFwj20mZj-1" source="U9eNo2REIv2VFwj20mZj-14" target="MdzHkoHfcGQ2sn3y5eH_-3" edge="1">
          <mxGeometry relative="1" as="geometry" />
        </mxCell>
        <mxCell id="MdzHkoHfcGQ2sn3y5eH_-10" value="input:Enter" style="edgeLabel;html=1;align=center;verticalAlign=middle;resizable=0;points=[];" parent="MdzHkoHfcGQ2sn3y5eH_-8" vertex="1" connectable="0">
          <mxGeometry x="-0.527" y="-1" relative="1" as="geometry">
            <mxPoint as="offset" />
          </mxGeometry>
        </mxCell>
        <mxCell id="MdzHkoHfcGQ2sn3y5eH_-9" style="edgeStyle=orthogonalEdgeStyle;rounded=0;orthogonalLoop=1;jettySize=auto;html=1;exitX=0.85;exitY=0.05;exitDx=0;exitDy=0;exitPerimeter=0;entryX=0.85;entryY=0.95;entryDx=0;entryDy=0;entryPerimeter=0;" parent="U9eNo2REIv2VFwj20mZj-1" source="MdzHkoHfcGQ2sn3y5eH_-3" target="U9eNo2REIv2VFwj20mZj-14" edge="1">
          <mxGeometry relative="1" as="geometry" />
        </mxCell>
        <mxCell id="MdzHkoHfcGQ2sn3y5eH_-11" value="input:Back" style="edgeLabel;html=1;align=center;verticalAlign=middle;resizable=0;points=[];" parent="MdzHkoHfcGQ2sn3y5eH_-9" vertex="1" connectable="0">
          <mxGeometry x="-0.6805" relative="1" as="geometry">
            <mxPoint y="-6" as="offset" />
          </mxGeometry>
        </mxCell>
        <mxCell id="MdzHkoHfcGQ2sn3y5eH_-13" style="edgeStyle=orthogonalEdgeStyle;rounded=0;orthogonalLoop=1;jettySize=auto;html=1;exitX=1;exitY=0.3;exitDx=0;exitDy=0;entryX=1;entryY=0.7;entryDx=0;entryDy=0;" parent="U9eNo2REIv2VFwj20mZj-1" edge="1">
          <mxGeometry relative="1" as="geometry">
            <mxPoint x="550.03" y="641.9300000000001" as="sourcePoint" />
            <mxPoint x="550.03" y="665.9300000000001" as="targetPoint" />
            <Array as="points">
              <mxPoint x="650" y="641.9300000000001" />
              <mxPoint x="650" y="665.9300000000001" />
            </Array>
          </mxGeometry>
        </mxCell>
        <mxCell id="MdzHkoHfcGQ2sn3y5eH_-15" value="input:Right &lt;br&gt;/selectNextParam" style="edgeLabel;html=1;align=center;verticalAlign=middle;resizable=0;points=[];" parent="MdzHkoHfcGQ2sn3y5eH_-13" vertex="1" connectable="0">
          <mxGeometry x="-0.6122" y="-2" relative="1" as="geometry">
            <mxPoint x="4" y="-20" as="offset" />
          </mxGeometry>
        </mxCell>
        <mxCell id="MdzHkoHfcGQ2sn3y5eH_-21" style="edgeStyle=orthogonalEdgeStyle;rounded=0;orthogonalLoop=1;jettySize=auto;html=1;exitX=1;exitY=0.3;exitDx=0;exitDy=0;entryX=0;entryY=0.3;entryDx=0;entryDy=0;" parent="U9eNo2REIv2VFwj20mZj-1" source="MdzHkoHfcGQ2sn3y5eH_-16" target="MdzHkoHfcGQ2sn3y5eH_-20" edge="1">
          <mxGeometry relative="1" as="geometry" />
        </mxCell>
        <mxCell id="MdzHkoHfcGQ2sn3y5eH_-24" value="input:Back" style="edgeLabel;html=1;align=center;verticalAlign=middle;resizable=0;points=[];" parent="MdzHkoHfcGQ2sn3y5eH_-21" vertex="1" connectable="0">
          <mxGeometry x="-0.7105" y="1" relative="1" as="geometry">
            <mxPoint x="10" y="-7" as="offset" />
          </mxGeometry>
        </mxCell>
        <UserObject label="&lt;span style=&quot;font-size: 14px;&quot;&gt;Running&lt;/span&gt;" link="data:page/id,L3i76ElQJjdjCGGuyOkV" id="MdzHkoHfcGQ2sn3y5eH_-16">
          <mxCell style="shape=umlState;rounded=1;verticalAlign=top;spacingTop=5;umlStateSymbol=collapseState;absoluteArcSize=1;arcSize=10;dashed=0;fontFamily=Helvetica;fontSize=12;fontColor=default;align=center;strokeColor=default;fillColor=default;html=1;" parent="U9eNo2REIv2VFwj20mZj-1" vertex="1">
            <mxGeometry x="439.97" y="848.63" width="110" height="60" as="geometry" />
          </mxCell>
        </UserObject>
        <mxCell id="MdzHkoHfcGQ2sn3y5eH_-17" style="edgeStyle=orthogonalEdgeStyle;rounded=0;orthogonalLoop=1;jettySize=auto;html=1;exitX=0.5;exitY=1;exitDx=0;exitDy=0;entryX=0.5;entryY=0;entryDx=0;entryDy=0;" parent="U9eNo2REIv2VFwj20mZj-1" source="MdzHkoHfcGQ2sn3y5eH_-3" target="MdzHkoHfcGQ2sn3y5eH_-16" edge="1">
          <mxGeometry relative="1" as="geometry" />
        </mxCell>
        <mxCell id="MdzHkoHfcGQ2sn3y5eH_-18" value="input:Enter[&quot;start&quot; selected]&lt;br&gt;/create process" style="edgeLabel;html=1;align=center;verticalAlign=middle;resizable=0;points=[];" parent="MdzHkoHfcGQ2sn3y5eH_-17" vertex="1" connectable="0">
          <mxGeometry x="-0.2454" relative="1" as="geometry">
            <mxPoint x="15" y="-10" as="offset" />
          </mxGeometry>
        </mxCell>
        <mxCell id="MdzHkoHfcGQ2sn3y5eH_-22" style="edgeStyle=orthogonalEdgeStyle;rounded=0;orthogonalLoop=1;jettySize=auto;html=1;exitX=0;exitY=0.7;exitDx=0;exitDy=0;entryX=1;entryY=0.7;entryDx=0;entryDy=0;" parent="U9eNo2REIv2VFwj20mZj-1" source="MdzHkoHfcGQ2sn3y5eH_-20" target="MdzHkoHfcGQ2sn3y5eH_-16" edge="1">
          <mxGeometry relative="1" as="geometry" />
        </mxCell>
        <mxCell id="MdzHkoHfcGQ2sn3y5eH_-25" value="input:Back" style="edgeLabel;html=1;align=center;verticalAlign=middle;resizable=0;points=[];" parent="MdzHkoHfcGQ2sn3y5eH_-22" vertex="1" connectable="0">
          <mxGeometry x="-0.7635" y="1" relative="1" as="geometry">
            <mxPoint x="-13" y="7" as="offset" />
          </mxGeometry>
        </mxCell>
        <mxCell id="MdzHkoHfcGQ2sn3y5eH_-23" style="edgeStyle=orthogonalEdgeStyle;rounded=0;orthogonalLoop=1;jettySize=auto;html=1;exitX=0.5;exitY=0;exitDx=0;exitDy=0;entryX=1;entryY=0.5;entryDx=0;entryDy=0;" parent="U9eNo2REIv2VFwj20mZj-1" source="MdzHkoHfcGQ2sn3y5eH_-20" target="U9eNo2REIv2VFwj20mZj-14" edge="1">
          <mxGeometry relative="1" as="geometry" />
        </mxCell>
        <mxCell id="MdzHkoHfcGQ2sn3y5eH_-26" value="input:Enter" style="edgeLabel;html=1;align=center;verticalAlign=middle;resizable=0;points=[];" parent="MdzHkoHfcGQ2sn3y5eH_-23" vertex="1" connectable="0">
          <mxGeometry x="-0.8973" y="3" relative="1" as="geometry">
            <mxPoint x="3" y="4" as="offset" />
          </mxGeometry>
        </mxCell>
        <UserObject label="&lt;span style=&quot;font-size: 14px;&quot;&gt;Aborting&lt;/span&gt;" link="data:page/id,8S_to55ve3AJg4ny3uLI" id="MdzHkoHfcGQ2sn3y5eH_-20">
          <mxCell style="shape=umlState;rounded=1;verticalAlign=top;spacingTop=5;umlStateSymbol=collapseState;absoluteArcSize=1;arcSize=10;dashed=0;fontFamily=Helvetica;fontSize=12;fontColor=default;align=center;strokeColor=default;fillColor=default;html=1;" parent="U9eNo2REIv2VFwj20mZj-1" vertex="1">
            <mxGeometry x="660" y="848.63" width="110" height="60" as="geometry" />
          </mxCell>
        </UserObject>
        <mxCell id="IYJ0MXfqv5EqJzjw4DDh-2" style="edgeStyle=orthogonalEdgeStyle;rounded=0;orthogonalLoop=1;jettySize=auto;html=1;exitX=1;exitY=0.7;exitDx=0;exitDy=0;entryX=0;entryY=0.7;entryDx=0;entryDy=0;" parent="U9eNo2REIv2VFwj20mZj-1" source="IYJ0MXfqv5EqJzjw4DDh-0" target="MdzHkoHfcGQ2sn3y5eH_-3" edge="1">
          <mxGeometry relative="1" as="geometry" />
        </mxCell>
        <mxCell id="IYJ0MXfqv5EqJzjw4DDh-4" value="input:Enter" style="edgeLabel;html=1;align=center;verticalAlign=middle;resizable=0;points=[];" parent="IYJ0MXfqv5EqJzjw4DDh-2" vertex="1" connectable="0">
          <mxGeometry x="-0.7009" relative="1" as="geometry">
            <mxPoint x="9" y="-11" as="offset" />
          </mxGeometry>
        </mxCell>
        <mxCell id="IYJ0MXfqv5EqJzjw4DDh-5" style="edgeStyle=orthogonalEdgeStyle;rounded=0;orthogonalLoop=1;jettySize=auto;html=1;exitX=-0.01;exitY=0.188;exitDx=0;exitDy=0;exitPerimeter=0;" parent="U9eNo2REIv2VFwj20mZj-1" source="IYJ0MXfqv5EqJzjw4DDh-0" edge="1">
          <mxGeometry relative="1" as="geometry">
            <mxPoint x="188.96" y="673.9300000000001" as="targetPoint" />
            <Array as="points">
              <mxPoint x="49.96000000000001" y="647.9300000000001" />
              <mxPoint x="49.96000000000001" y="673.9300000000001" />
            </Array>
          </mxGeometry>
        </mxCell>
        <mxCell id="IYJ0MXfqv5EqJzjw4DDh-7" value="input:Right&lt;br&gt;/IncreaseSelectedParam" style="edgeLabel;html=1;align=center;verticalAlign=middle;resizable=0;points=[];" parent="IYJ0MXfqv5EqJzjw4DDh-5" vertex="1" connectable="0">
          <mxGeometry x="-0.4003" relative="1" as="geometry">
            <mxPoint x="27" y="-17" as="offset" />
          </mxGeometry>
        </mxCell>
        <UserObject label="&lt;span style=&quot;font-size: 14px;&quot;&gt;SettingParam&lt;/span&gt;" link="data:page/id,Cx4U9CRynPyjxAi1pBJz" id="IYJ0MXfqv5EqJzjw4DDh-0">
          <mxCell style="shape=umlState;rounded=1;verticalAlign=top;spacingTop=5;umlStateSymbol=collapseState;absoluteArcSize=1;arcSize=10;dashed=0;fontFamily=Helvetica;fontSize=12;fontColor=default;align=center;strokeColor=default;fillColor=default;html=1;" parent="U9eNo2REIv2VFwj20mZj-1" vertex="1">
            <mxGeometry x="189.96" y="623.9300000000001" width="110" height="130" as="geometry" />
          </mxCell>
        </UserObject>
        <mxCell id="IYJ0MXfqv5EqJzjw4DDh-6" style="edgeStyle=orthogonalEdgeStyle;rounded=0;orthogonalLoop=1;jettySize=auto;html=1;exitX=-0.01;exitY=0.188;exitDx=0;exitDy=0;exitPerimeter=0;" parent="U9eNo2REIv2VFwj20mZj-1" edge="1">
          <mxGeometry relative="1" as="geometry">
            <mxPoint x="188.96" y="739.9300000000001" as="targetPoint" />
            <mxPoint x="188.96" y="713.9300000000001" as="sourcePoint" />
            <Array as="points">
              <mxPoint x="49.96000000000001" y="713.9300000000001" />
              <mxPoint x="49.96000000000001" y="739.9300000000001" />
            </Array>
          </mxGeometry>
        </mxCell>
        <mxCell id="IYJ0MXfqv5EqJzjw4DDh-8" value="input:Left&lt;br&gt;/DecreaseSelectedParam" style="edgeLabel;html=1;align=center;verticalAlign=middle;resizable=0;points=[];" parent="IYJ0MXfqv5EqJzjw4DDh-6" vertex="1" connectable="0">
          <mxGeometry x="-0.5643" relative="1" as="geometry">
            <mxPoint x="2" y="-14" as="offset" />
          </mxGeometry>
        </mxCell>
      </root>
    </mxGraphModel>
  </diagram>
  <diagram name="StartingUp" id="HuPK9h1Ta_5vS5yq8Nfy">
    <mxGraphModel dx="1562" dy="917" grid="1" gridSize="10" guides="1" tooltips="1" connect="1" arrows="1" fold="1" page="1" pageScale="1" pageWidth="850" pageHeight="1100" math="0" shadow="0">
      <root>
        <mxCell id="2mLhLROGuDDsU3emq0NF-0" />
        <mxCell id="2mLhLROGuDDsU3emq0NF-1" parent="2mLhLROGuDDsU3emq0NF-0" />
        <mxCell id="2mLhLROGuDDsU3emq0NF-21" value="Smart Sprouter -&amp;nbsp;&lt;span style=&quot;font-size: 14px; text-align: center; text-wrap: nowrap;&quot;&gt;StartingUp&amp;nbsp;&lt;/span&gt;- State Machine" style="shape=umlFrame;whiteSpace=wrap;html=1;width=350;height=20;boundedLbl=1;verticalAlign=middle;align=left;spacingLeft=5;fontColor=#000000;fillColor=default;" parent="2mLhLROGuDDsU3emq0NF-1" vertex="1">
          <mxGeometry x="40" y="37.5" width="770" height="630" as="geometry" />
        </mxCell>
        <mxCell id="FZAdERI-aS279I1FYKt2-6" value="" style="edgeStyle=orthogonalEdgeStyle;rounded=0;orthogonalLoop=1;jettySize=auto;html=1;" parent="2mLhLROGuDDsU3emq0NF-1" source="ND4rXbcfF4eaCdvjJ-xp-0" target="FZAdERI-aS279I1FYKt2-5" edge="1">
          <mxGeometry relative="1" as="geometry" />
        </mxCell>
        <mxCell id="BHKw3m10rxeuLki6_z9t-0" value="Display functional" style="edgeLabel;html=1;align=center;verticalAlign=middle;resizable=0;points=[];" parent="FZAdERI-aS279I1FYKt2-6" vertex="1" connectable="0">
          <mxGeometry x="-0.5051" y="-2" relative="1" as="geometry">
            <mxPoint x="47" as="offset" />
          </mxGeometry>
        </mxCell>
        <mxCell id="ND4rXbcfF4eaCdvjJ-xp-0" value="&lt;font style=&quot;font-size: 14px;&quot;&gt;Initializing Display&lt;/font&gt;&lt;div&gt;do /init and test&lt;/div&gt;" style="html=1;align=center;verticalAlign=top;rounded=1;absoluteArcSize=1;arcSize=10;fontFamily=Helvetica;fontSize=12;fontColor=default;strokeColor=default;fillColor=default;" parent="2mLhLROGuDDsU3emq0NF-1" vertex="1">
          <mxGeometry x="270" y="112.5" width="170" height="45" as="geometry" />
        </mxCell>
        <mxCell id="FZAdERI-aS279I1FYKt2-4" style="edgeStyle=orthogonalEdgeStyle;rounded=0;orthogonalLoop=1;jettySize=auto;html=1;exitX=1;exitY=0.5;exitDx=0;exitDy=0;" parent="2mLhLROGuDDsU3emq0NF-1" source="FZAdERI-aS279I1FYKt2-0" target="ND4rXbcfF4eaCdvjJ-xp-0" edge="1">
          <mxGeometry relative="1" as="geometry" />
        </mxCell>
        <mxCell id="FZAdERI-aS279I1FYKt2-0" value="" style="ellipse;fillColor=#000000;strokeColor=none;" parent="2mLhLROGuDDsU3emq0NF-1" vertex="1">
          <mxGeometry x="120" y="120" width="30" height="30" as="geometry" />
        </mxCell>
        <mxCell id="FZAdERI-aS279I1FYKt2-8" value="" style="edgeStyle=orthogonalEdgeStyle;rounded=0;orthogonalLoop=1;jettySize=auto;html=1;" parent="2mLhLROGuDDsU3emq0NF-1" source="FZAdERI-aS279I1FYKt2-5" target="FZAdERI-aS279I1FYKt2-7" edge="1">
          <mxGeometry relative="1" as="geometry" />
        </mxCell>
        <mxCell id="BHKw3m10rxeuLki6_z9t-1" value="Sensors functional" style="edgeLabel;html=1;align=center;verticalAlign=middle;resizable=0;points=[];" parent="FZAdERI-aS279I1FYKt2-8" vertex="1" connectable="0">
          <mxGeometry x="-0.5003" relative="1" as="geometry">
            <mxPoint x="55" as="offset" />
          </mxGeometry>
        </mxCell>
        <mxCell id="FZAdERI-aS279I1FYKt2-5" value="&lt;font style=&quot;font-size: 14px;&quot;&gt;Initializing Humidity/Temp Sensors&lt;/font&gt;&lt;div&gt;&lt;div&gt;do /init and test&lt;/div&gt;&lt;/div&gt;" style="html=1;align=center;verticalAlign=top;rounded=1;absoluteArcSize=1;arcSize=10;fontFamily=Helvetica;fontSize=12;fontColor=default;strokeColor=default;fillColor=default;" parent="2mLhLROGuDDsU3emq0NF-1" vertex="1">
          <mxGeometry x="245" y="220" width="220" height="45" as="geometry" />
        </mxCell>
        <mxCell id="FZAdERI-aS279I1FYKt2-10" value="" style="edgeStyle=orthogonalEdgeStyle;rounded=0;orthogonalLoop=1;jettySize=auto;html=1;" parent="2mLhLROGuDDsU3emq0NF-1" source="FZAdERI-aS279I1FYKt2-7" target="FZAdERI-aS279I1FYKt2-9" edge="1">
          <mxGeometry relative="1" as="geometry" />
        </mxCell>
        <mxCell id="BHKw3m10rxeuLki6_z9t-2" value="" style="edgeStyle=orthogonalEdgeStyle;rounded=0;orthogonalLoop=1;jettySize=auto;html=1;" parent="2mLhLROGuDDsU3emq0NF-1" source="FZAdERI-aS279I1FYKt2-7" target="FZAdERI-aS279I1FYKt2-9" edge="1">
          <mxGeometry relative="1" as="geometry" />
        </mxCell>
        <mxCell id="BHKw3m10rxeuLki6_z9t-3" value="Humidifiers functional" style="edgeLabel;html=1;align=center;verticalAlign=middle;resizable=0;points=[];" parent="BHKw3m10rxeuLki6_z9t-2" vertex="1" connectable="0">
          <mxGeometry x="-0.5321" y="2" relative="1" as="geometry">
            <mxPoint x="53" as="offset" />
          </mxGeometry>
        </mxCell>
        <mxCell id="FZAdERI-aS279I1FYKt2-7" value="&lt;font style=&quot;font-size: 14px;&quot;&gt;Initializing Humidifiers&lt;/font&gt;&lt;div&gt;&lt;div&gt;do /init and test&lt;/div&gt;&lt;/div&gt;" style="html=1;align=center;verticalAlign=top;rounded=1;absoluteArcSize=1;arcSize=10;fontFamily=Helvetica;fontSize=12;fontColor=default;strokeColor=default;fillColor=default;" parent="2mLhLROGuDDsU3emq0NF-1" vertex="1">
          <mxGeometry x="277.5" y="330" width="155" height="45" as="geometry" />
        </mxCell>
        <mxCell id="yQI0y8dSMR8zBikhS_G9-1" value="" style="edgeStyle=orthogonalEdgeStyle;rounded=0;orthogonalLoop=1;jettySize=auto;html=1;" parent="2mLhLROGuDDsU3emq0NF-1" source="FZAdERI-aS279I1FYKt2-9" target="yQI0y8dSMR8zBikhS_G9-0" edge="1">
          <mxGeometry relative="1" as="geometry" />
        </mxCell>
        <mxCell id="BHKw3m10rxeuLki6_z9t-5" value="pumps functional&lt;br&gt;/Trans:Initializing" style="edgeLabel;html=1;align=center;verticalAlign=middle;resizable=0;points=[];" parent="yQI0y8dSMR8zBikhS_G9-1" vertex="1" connectable="0">
          <mxGeometry x="-0.7639" relative="1" as="geometry">
            <mxPoint x="45" y="5" as="offset" />
          </mxGeometry>
        </mxCell>
        <mxCell id="FZAdERI-aS279I1FYKt2-9" value="&lt;font style=&quot;font-size: 14px;&quot;&gt;Initializing air/water pumps&lt;/font&gt;&lt;div&gt;&lt;div&gt;do /init and test&lt;/div&gt;&lt;/div&gt;" style="html=1;align=center;verticalAlign=top;rounded=1;absoluteArcSize=1;arcSize=10;fontFamily=Helvetica;fontSize=12;fontColor=default;strokeColor=default;fillColor=default;" parent="2mLhLROGuDDsU3emq0NF-1" vertex="1">
          <mxGeometry x="262.5" y="440" width="185" height="45" as="geometry" />
        </mxCell>
        <UserObject label="" link="data:page/id,EZjYjFrGr3VQ2C8jx9l8" id="yQI0y8dSMR8zBikhS_G9-0">
          <mxCell style="ellipse;html=1;shape=endState;fillColor=#000000;strokeColor=#000000;" parent="2mLhLROGuDDsU3emq0NF-1" vertex="1">
            <mxGeometry x="340" y="570" width="30" height="30" as="geometry" />
          </mxCell>
        </UserObject>
        <mxCell id="o8HEJnIurXWx8IkFsa9c-0" style="edgeStyle=orthogonalEdgeStyle;rounded=0;orthogonalLoop=1;jettySize=auto;html=1;endArrow=open;endFill=0;fillColor=#f8cecc;strokeColor=#b85450;entryX=0.5;entryY=0;entryDx=0;entryDy=0;" parent="2mLhLROGuDDsU3emq0NF-1" source="ND4rXbcfF4eaCdvjJ-xp-0" target="D57xonXpf7TEyHNs26lA-0" edge="1">
          <mxGeometry relative="1" as="geometry">
            <Array as="points" />
            <mxPoint x="500" y="134.5" as="sourcePoint" />
            <mxPoint x="698" y="134.5" as="targetPoint" />
          </mxGeometry>
        </mxCell>
        <mxCell id="o8HEJnIurXWx8IkFsa9c-1" value="Display error" style="edgeLabel;html=1;align=center;verticalAlign=middle;resizable=0;points=[];fontColor=#990000;" parent="o8HEJnIurXWx8IkFsa9c-0" vertex="1" connectable="0">
          <mxGeometry x="-0.8963" y="1" relative="1" as="geometry">
            <mxPoint x="18" y="-7" as="offset" />
          </mxGeometry>
        </mxCell>
        <mxCell id="F8r4Di2tLJQDexLEjnQI-0" style="edgeStyle=orthogonalEdgeStyle;rounded=0;orthogonalLoop=1;jettySize=auto;html=1;endArrow=open;endFill=0;fillColor=#f8cecc;strokeColor=#b85450;entryX=0.5;entryY=0;entryDx=0;entryDy=0;exitX=1;exitY=0.5;exitDx=0;exitDy=0;" parent="2mLhLROGuDDsU3emq0NF-1" source="FZAdERI-aS279I1FYKt2-5" target="D57xonXpf7TEyHNs26lA-0" edge="1">
          <mxGeometry relative="1" as="geometry">
            <Array as="points" />
            <mxPoint x="490" y="242.5" as="sourcePoint" />
            <mxPoint x="748" y="242" as="targetPoint" />
          </mxGeometry>
        </mxCell>
        <mxCell id="F8r4Di2tLJQDexLEjnQI-1" value="Sensors error" style="edgeLabel;html=1;align=center;verticalAlign=middle;resizable=0;points=[];fontColor=#990000;" parent="F8r4Di2tLJQDexLEjnQI-0" vertex="1" connectable="0">
          <mxGeometry x="-0.8963" y="1" relative="1" as="geometry">
            <mxPoint x="30" y="-11" as="offset" />
          </mxGeometry>
        </mxCell>
        <mxCell id="F8r4Di2tLJQDexLEjnQI-3" style="edgeStyle=orthogonalEdgeStyle;rounded=0;orthogonalLoop=1;jettySize=auto;html=1;endArrow=open;endFill=0;fillColor=#f8cecc;strokeColor=#b85450;entryX=0.5;entryY=0;entryDx=0;entryDy=0;exitX=1;exitY=0.5;exitDx=0;exitDy=0;" parent="2mLhLROGuDDsU3emq0NF-1" source="FZAdERI-aS279I1FYKt2-7" target="D57xonXpf7TEyHNs26lA-0" edge="1">
          <mxGeometry relative="1" as="geometry">
            <Array as="points" />
            <mxPoint x="460" y="352.76" as="sourcePoint" />
            <mxPoint x="743" y="351.76" as="targetPoint" />
          </mxGeometry>
        </mxCell>
        <mxCell id="F8r4Di2tLJQDexLEjnQI-4" value="Humidifiers error" style="edgeLabel;html=1;align=center;verticalAlign=middle;resizable=0;points=[];fontColor=#990000;" parent="F8r4Di2tLJQDexLEjnQI-3" vertex="1" connectable="0">
          <mxGeometry x="-0.8963" y="1" relative="1" as="geometry">
            <mxPoint x="47" y="-11" as="offset" />
          </mxGeometry>
        </mxCell>
        <mxCell id="F8r4Di2tLJQDexLEjnQI-5" style="edgeStyle=orthogonalEdgeStyle;rounded=0;orthogonalLoop=1;jettySize=auto;html=1;endArrow=open;endFill=0;fillColor=#f8cecc;strokeColor=#b85450;exitX=1;exitY=0.5;exitDx=0;exitDy=0;entryX=0.5;entryY=0;entryDx=0;entryDy=0;" parent="2mLhLROGuDDsU3emq0NF-1" source="FZAdERI-aS279I1FYKt2-9" target="D57xonXpf7TEyHNs26lA-0" edge="1">
          <mxGeometry relative="1" as="geometry">
            <Array as="points" />
            <mxPoint x="450" y="465.2" as="sourcePoint" />
            <mxPoint x="530" y="463" as="targetPoint" />
          </mxGeometry>
        </mxCell>
        <mxCell id="F8r4Di2tLJQDexLEjnQI-6" value="pumps error" style="edgeLabel;html=1;align=center;verticalAlign=middle;resizable=0;points=[];fontColor=#990000;" parent="F8r4Di2tLJQDexLEjnQI-5" vertex="1" connectable="0">
          <mxGeometry x="-0.8963" y="1" relative="1" as="geometry">
            <mxPoint x="39" y="-11" as="offset" />
          </mxGeometry>
        </mxCell>
        <mxCell id="D57xonXpf7TEyHNs26lA-0" value="" style="ellipse;fillColor=default;strokeColor=#b85450;" parent="2mLhLROGuDDsU3emq0NF-1" vertex="1">
          <mxGeometry x="600" y="571.0714285714286" width="31.132075471698112" height="27.857142857142858" as="geometry" />
        </mxCell>
        <mxCell id="ipsuuNOGRAzDjvo4NBdi-0" style="edgeStyle=orthogonalEdgeStyle;rounded=0;orthogonalLoop=1;jettySize=auto;html=1;endArrow=open;endFill=0;fillColor=#f8cecc;strokeColor=#b85450;exitX=1;exitY=0.5;exitDx=0;exitDy=0;entryX=0;entryY=0.5;entryDx=0;entryDy=0;" parent="2mLhLROGuDDsU3emq0NF-1" source="D57xonXpf7TEyHNs26lA-0" target="P5caWtHD8RGYm-tlikpr-0" edge="1">
          <mxGeometry relative="1" as="geometry">
            <Array as="points" />
            <mxPoint x="660" y="598.93" as="sourcePoint" />
            <mxPoint x="720" y="585" as="targetPoint" />
          </mxGeometry>
        </mxCell>
        <mxCell id="ipsuuNOGRAzDjvo4NBdi-1" value="hardware error &lt;br&gt;/Trans:SystemInError" style="edgeLabel;html=1;align=center;verticalAlign=middle;resizable=0;points=[];fontColor=#990000;" parent="ipsuuNOGRAzDjvo4NBdi-0" vertex="1" connectable="0">
          <mxGeometry x="-0.8963" y="1" relative="1" as="geometry">
            <mxPoint x="52" y="-14" as="offset" />
          </mxGeometry>
        </mxCell>
        <mxCell id="P5caWtHD8RGYm-tlikpr-0" value="" style="shape=sumEllipse;perimeter=ellipsePerimeter;html=1;backgroundOutline=1;fillColor=#ffe6cc;strokeColor=#d79b00;" parent="2mLhLROGuDDsU3emq0NF-1" vertex="1">
          <mxGeometry x="760" y="570" width="30" height="30" as="geometry" />
        </mxCell>
      </root>
    </mxGraphModel>
  </diagram>
  <diagram id="_jTvufelZweBmXb9jXtE" name="SystemInError">
    <mxGraphModel dx="1562" dy="917" grid="1" gridSize="10" guides="1" tooltips="1" connect="1" arrows="1" fold="1" page="1" pageScale="1" pageWidth="850" pageHeight="1100" math="0" shadow="0">
      <root>
        <mxCell id="0" />
        <mxCell id="1" parent="0" />
        <mxCell id="fuUkR6jFKF_bvwlk4Jc8-20" value="Smart Sprouter -&amp;nbsp;SystemInError - State Machine" style="shape=umlFrame;whiteSpace=wrap;html=1;width=350;height=20;boundedLbl=1;verticalAlign=middle;align=left;spacingLeft=5;fontColor=#000000;fillColor=default;" parent="1" vertex="1">
          <mxGeometry x="40" y="40" width="1080" height="430" as="geometry" />
        </mxCell>
      </root>
    </mxGraphModel>
  </diagram>
  <diagram name="Idling" id="QI7EUJDXqZn1OK4-iWmv">
    <mxGraphModel dx="1562" dy="3117" grid="1" gridSize="10" guides="1" tooltips="1" connect="1" arrows="1" fold="1" page="1" pageScale="1" pageWidth="850" pageHeight="1100" math="0" shadow="0">
      <root>
        <mxCell id="vVWpMip1MZBDJPCsPv5t-0" />
        <mxCell id="vVWpMip1MZBDJPCsPv5t-1" parent="vVWpMip1MZBDJPCsPv5t-0" />
        <mxCell id="OzWNBFXgNN1t5MLk4Xlx-0" value="Smart Sprouter -&amp;nbsp;&lt;span style=&quot;font-size: 14px; text-align: center; text-wrap: nowrap;&quot;&gt;Idling&amp;nbsp;&lt;/span&gt;- State Machine" style="shape=umlFrame;whiteSpace=wrap;html=1;width=350;height=20;boundedLbl=1;verticalAlign=middle;align=left;spacingLeft=5;fontColor=#000000;fillColor=default;" vertex="1" parent="vVWpMip1MZBDJPCsPv5t-1">
          <mxGeometry x="40" y="-2160" width="1150" height="590" as="geometry" />
        </mxCell>
        <mxCell id="S7Cu8Mf6TnFTkkatlHOf-6" style="edgeStyle=orthogonalEdgeStyle;rounded=0;orthogonalLoop=1;jettySize=auto;html=1;exitX=0.25;exitY=1;exitDx=0;exitDy=0;entryX=0;entryY=0.5;entryDx=0;entryDy=0;" edge="1" parent="vVWpMip1MZBDJPCsPv5t-1" source="DiS2GYKnnIA7p6GQtjPu-0" target="S7Cu8Mf6TnFTkkatlHOf-1">
          <mxGeometry relative="1" as="geometry">
            <Array as="points">
              <mxPoint x="445" y="-1655" />
            </Array>
          </mxGeometry>
        </mxCell>
        <mxCell id="CHn-5qFmVtGcl9CVVVe1-0" value="input:Right&lt;br&gt;/Trans:Informing" style="edgeLabel;html=1;align=center;verticalAlign=middle;resizable=0;points=[];" vertex="1" connectable="0" parent="S7Cu8Mf6TnFTkkatlHOf-6">
          <mxGeometry x="-0.7169" y="-2" relative="1" as="geometry">
            <mxPoint x="52" y="-10" as="offset" />
          </mxGeometry>
        </mxCell>
        <mxCell id="S7Cu8Mf6TnFTkkatlHOf-7" style="edgeStyle=orthogonalEdgeStyle;rounded=0;orthogonalLoop=1;jettySize=auto;html=1;exitX=0.5;exitY=1;exitDx=0;exitDy=0;entryX=0;entryY=0.5;entryDx=0;entryDy=0;" edge="1" parent="vVWpMip1MZBDJPCsPv5t-1" source="DiS2GYKnnIA7p6GQtjPu-0" target="S7Cu8Mf6TnFTkkatlHOf-2">
          <mxGeometry relative="1" as="geometry" />
        </mxCell>
        <mxCell id="CHn-5qFmVtGcl9CVVVe1-1" value="input:Enter&lt;br&gt;/Trans:SettingProcess" style="edgeLabel;html=1;align=center;verticalAlign=middle;resizable=0;points=[];" vertex="1" connectable="0" parent="S7Cu8Mf6TnFTkkatlHOf-7">
          <mxGeometry x="-0.7351" y="-2" relative="1" as="geometry">
            <mxPoint x="62" y="-11" as="offset" />
          </mxGeometry>
        </mxCell>
        <mxCell id="DiS2GYKnnIA7p6GQtjPu-0" value="Idling" style="html=1;align=center;verticalAlign=top;rounded=1;absoluteArcSize=1;arcSize=10;dashed=0;fillColor=none;" vertex="1" parent="vVWpMip1MZBDJPCsPv5t-1">
          <mxGeometry x="215" y="-2050" width="920" height="240" as="geometry" />
        </mxCell>
        <mxCell id="i6JYwceaJ_jQjxm_QoAy-6" style="edgeStyle=orthogonalEdgeStyle;rounded=0;orthogonalLoop=1;jettySize=auto;html=1;exitX=1;exitY=0.5;exitDx=0;exitDy=0;entryX=0;entryY=0.5;entryDx=0;entryDy=0;" edge="1" parent="vVWpMip1MZBDJPCsPv5t-1" source="i6JYwceaJ_jQjxm_QoAy-1" target="i6JYwceaJ_jQjxm_QoAy-5">
          <mxGeometry relative="1" as="geometry" />
        </mxCell>
        <mxCell id="i6JYwceaJ_jQjxm_QoAy-7" value="/UpdateIdlePageValueLabels&lt;br&gt;/Display(IdlePage)" style="edgeLabel;html=1;align=center;verticalAlign=middle;resizable=0;points=[];" vertex="1" connectable="0" parent="i6JYwceaJ_jQjxm_QoAy-6">
          <mxGeometry x="-0.2333" y="1" relative="1" as="geometry">
            <mxPoint x="18" y="21" as="offset" />
          </mxGeometry>
        </mxCell>
        <mxCell id="i6JYwceaJ_jQjxm_QoAy-1" value="&lt;div&gt;&lt;span style=&quot;font-size: 14px;&quot;&gt;ReadingSensors&lt;/span&gt;&lt;/div&gt;" style="html=1;align=center;verticalAlign=top;rounded=1;absoluteArcSize=1;arcSize=10;fontFamily=Helvetica;fontSize=12;fontColor=default;strokeColor=default;fillColor=default;" vertex="1" parent="vVWpMip1MZBDJPCsPv5t-1">
          <mxGeometry x="620" y="-1930" width="160" height="40" as="geometry" />
        </mxCell>
        <mxCell id="i6JYwceaJ_jQjxm_QoAy-3" style="edgeStyle=orthogonalEdgeStyle;rounded=0;orthogonalLoop=1;jettySize=auto;html=1;exitX=1;exitY=0.5;exitDx=0;exitDy=0;entryX=0;entryY=0.5;entryDx=0;entryDy=0;" edge="1" parent="vVWpMip1MZBDJPCsPv5t-1" source="i6JYwceaJ_jQjxm_QoAy-2" target="i6JYwceaJ_jQjxm_QoAy-1">
          <mxGeometry relative="1" as="geometry" />
        </mxCell>
        <mxCell id="i6JYwceaJ_jQjxm_QoAy-4" value="refresh duration elapsed&lt;br&gt;/ReadSensors" style="edgeLabel;html=1;align=center;verticalAlign=middle;resizable=0;points=[];" vertex="1" connectable="0" parent="i6JYwceaJ_jQjxm_QoAy-3">
          <mxGeometry x="-0.6608" y="1" relative="1" as="geometry">
            <mxPoint x="40" y="21" as="offset" />
          </mxGeometry>
        </mxCell>
        <mxCell id="i6JYwceaJ_jQjxm_QoAy-2" value="&lt;span style=&quot;font-size: 14px;&quot;&gt;RefreshSleeping&lt;/span&gt;" style="html=1;align=center;verticalAlign=top;rounded=1;absoluteArcSize=1;arcSize=10;fontFamily=Helvetica;fontSize=12;fontColor=default;strokeColor=default;fillColor=default;" vertex="1" parent="vVWpMip1MZBDJPCsPv5t-1">
          <mxGeometry x="340" y="-1930" width="160" height="40" as="geometry" />
        </mxCell>
        <mxCell id="i6JYwceaJ_jQjxm_QoAy-8" style="edgeStyle=orthogonalEdgeStyle;rounded=0;orthogonalLoop=1;jettySize=auto;html=1;exitX=0.5;exitY=0;exitDx=0;exitDy=0;entryX=0.5;entryY=0;entryDx=0;entryDy=0;" edge="1" parent="vVWpMip1MZBDJPCsPv5t-1" source="i6JYwceaJ_jQjxm_QoAy-5" target="i6JYwceaJ_jQjxm_QoAy-2">
          <mxGeometry relative="1" as="geometry">
            <Array as="points">
              <mxPoint x="1020" y="-1970" />
              <mxPoint x="420" y="-1970" />
            </Array>
          </mxGeometry>
        </mxCell>
        <mxCell id="i6JYwceaJ_jQjxm_QoAy-9" value="/SleepForRefreshDuration" style="edgeLabel;html=1;align=center;verticalAlign=middle;resizable=0;points=[];" vertex="1" connectable="0" parent="i6JYwceaJ_jQjxm_QoAy-8">
          <mxGeometry x="-0.5828" relative="1" as="geometry">
            <mxPoint x="32" y="-10" as="offset" />
          </mxGeometry>
        </mxCell>
        <mxCell id="i6JYwceaJ_jQjxm_QoAy-5" value="&lt;div&gt;&lt;span style=&quot;font-size: 14px;&quot;&gt;RefreshingDisplay&lt;/span&gt;&lt;/div&gt;" style="html=1;align=center;verticalAlign=top;rounded=1;absoluteArcSize=1;arcSize=10;fontFamily=Helvetica;fontSize=12;fontColor=default;strokeColor=default;fillColor=default;" vertex="1" parent="vVWpMip1MZBDJPCsPv5t-1">
          <mxGeometry x="940" y="-1930" width="160" height="40" as="geometry" />
        </mxCell>
        <mxCell id="i6JYwceaJ_jQjxm_QoAy-11" style="edgeStyle=orthogonalEdgeStyle;rounded=0;orthogonalLoop=1;jettySize=auto;html=1;exitX=1;exitY=0.5;exitDx=0;exitDy=0;entryX=0;entryY=0.5;entryDx=0;entryDy=0;" edge="1" parent="vVWpMip1MZBDJPCsPv5t-1" source="i6JYwceaJ_jQjxm_QoAy-10" target="i6JYwceaJ_jQjxm_QoAy-2">
          <mxGeometry relative="1" as="geometry" />
        </mxCell>
        <mxCell id="i6JYwceaJ_jQjxm_QoAy-10" value="" style="ellipse;fillColor=#000000;strokeColor=none;" vertex="1" parent="vVWpMip1MZBDJPCsPv5t-1">
          <mxGeometry x="235" y="-1925" width="30" height="30" as="geometry" />
        </mxCell>
        <mxCell id="S7Cu8Mf6TnFTkkatlHOf-0" style="edgeStyle=orthogonalEdgeStyle;rounded=0;orthogonalLoop=1;jettySize=auto;html=1;exitX=1;exitY=0.5;exitDx=0;exitDy=0;entryX=0;entryY=0.5;entryDx=0;entryDy=0;" edge="1" parent="vVWpMip1MZBDJPCsPv5t-1" source="QgvRohSOOXlXWIvAWni2-0" target="DiS2GYKnnIA7p6GQtjPu-0">
          <mxGeometry relative="1" as="geometry" />
        </mxCell>
        <mxCell id="QgvRohSOOXlXWIvAWni2-0" value="" style="ellipse;fillColor=#000000;strokeColor=none;" vertex="1" parent="vVWpMip1MZBDJPCsPv5t-1">
          <mxGeometry x="85" y="-1945" width="30" height="30" as="geometry" />
        </mxCell>
        <mxCell id="S7Cu8Mf6TnFTkkatlHOf-1" value="" style="ellipse;html=1;shape=endState;fillColor=#000000;strokeColor=#000000;" vertex="1" parent="vVWpMip1MZBDJPCsPv5t-1">
          <mxGeometry x="575" y="-1670" width="30" height="30" as="geometry" />
        </mxCell>
        <mxCell id="S7Cu8Mf6TnFTkkatlHOf-2" value="" style="ellipse;html=1;shape=endState;fillColor=#000000;strokeColor=#000000;" vertex="1" parent="vVWpMip1MZBDJPCsPv5t-1">
          <mxGeometry x="835" y="-1670" width="30" height="30" as="geometry" />
        </mxCell>
      </root>
    </mxGraphModel>
  </diagram>
  <diagram name="Informing" id="gkB5p-lJI1Ho-PFD50TE">
    <mxGraphModel dx="1358" dy="4097" grid="1" gridSize="10" guides="1" tooltips="1" connect="1" arrows="1" fold="1" page="1" pageScale="1" pageWidth="850" pageHeight="1100" math="0" shadow="0">
      <root>
        <mxCell id="qHeusrpd8XTAjq42QrKj-0" />
        <mxCell id="qHeusrpd8XTAjq42QrKj-1" parent="qHeusrpd8XTAjq42QrKj-0" />
        <mxCell id="qHeusrpd8XTAjq42QrKj-2" value="Smart Sprouter -&amp;nbsp;&lt;span style=&quot;font-size: 14px; text-align: center; text-wrap: nowrap;&quot;&gt;Informing&amp;nbsp;&lt;/span&gt;- State Machine" style="shape=umlFrame;whiteSpace=wrap;html=1;width=350;height=20;boundedLbl=1;verticalAlign=middle;align=left;spacingLeft=5;fontColor=#000000;fillColor=default;" vertex="1" parent="qHeusrpd8XTAjq42QrKj-1">
          <mxGeometry x="40" y="-3260" width="780" height="430" as="geometry" />
        </mxCell>
        <mxCell id="qHeusrpd8XTAjq42QrKj-5" style="edgeStyle=orthogonalEdgeStyle;rounded=0;orthogonalLoop=1;jettySize=auto;html=1;exitX=0.5;exitY=1;exitDx=0;exitDy=0;entryX=0;entryY=0.5;entryDx=0;entryDy=0;" edge="1" parent="qHeusrpd8XTAjq42QrKj-1" source="qHeusrpd8XTAjq42QrKj-7" target="qHeusrpd8XTAjq42QrKj-22">
          <mxGeometry relative="1" as="geometry" />
        </mxCell>
        <mxCell id="qHeusrpd8XTAjq42QrKj-6" value="input:Left&lt;br&gt;/Trans:Idling" style="edgeLabel;html=1;align=center;verticalAlign=middle;resizable=0;points=[];" vertex="1" connectable="0" parent="qHeusrpd8XTAjq42QrKj-5">
          <mxGeometry x="-0.7351" y="-2" relative="1" as="geometry">
            <mxPoint x="35" y="2" as="offset" />
          </mxGeometry>
        </mxCell>
        <mxCell id="qHeusrpd8XTAjq42QrKj-7" value="Informing" style="html=1;align=center;verticalAlign=top;rounded=1;absoluteArcSize=1;arcSize=10;dashed=0;fillColor=none;" vertex="1" parent="qHeusrpd8XTAjq42QrKj-1">
          <mxGeometry x="150" y="-3210" width="635" height="240" as="geometry" />
        </mxCell>
        <mxCell id="qHeusrpd8XTAjq42QrKj-11" style="edgeStyle=orthogonalEdgeStyle;rounded=0;orthogonalLoop=1;jettySize=auto;html=1;exitX=1;exitY=0.5;exitDx=0;exitDy=0;entryX=0;entryY=0.5;entryDx=0;entryDy=0;" edge="1" parent="qHeusrpd8XTAjq42QrKj-1" source="qHeusrpd8XTAjq42QrKj-13" target="qHeusrpd8XTAjq42QrKj-16">
          <mxGeometry relative="1" as="geometry">
            <mxPoint x="535" y="-3070" as="targetPoint" />
          </mxGeometry>
        </mxCell>
        <mxCell id="qHeusrpd8XTAjq42QrKj-12" value="refresh duration elapsed&lt;br&gt;/UpdateInformingPageValueLabels&lt;br&gt;/Display(InformingPage)" style="edgeLabel;html=1;align=center;verticalAlign=middle;resizable=0;points=[];" vertex="1" connectable="0" parent="qHeusrpd8XTAjq42QrKj-11">
          <mxGeometry x="-0.6608" y="1" relative="1" as="geometry">
            <mxPoint x="60" y="31" as="offset" />
          </mxGeometry>
        </mxCell>
        <mxCell id="qHeusrpd8XTAjq42QrKj-13" value="&lt;span style=&quot;font-size: 14px;&quot;&gt;RefreshSleeping&lt;/span&gt;" style="html=1;align=center;verticalAlign=top;rounded=1;absoluteArcSize=1;arcSize=10;fontFamily=Helvetica;fontSize=12;fontColor=default;strokeColor=default;fillColor=default;" vertex="1" parent="qHeusrpd8XTAjq42QrKj-1">
          <mxGeometry x="275" y="-3090" width="160" height="40" as="geometry" />
        </mxCell>
        <mxCell id="qHeusrpd8XTAjq42QrKj-14" style="edgeStyle=orthogonalEdgeStyle;rounded=0;orthogonalLoop=1;jettySize=auto;html=1;exitX=0.5;exitY=0;exitDx=0;exitDy=0;entryX=0.5;entryY=0;entryDx=0;entryDy=0;" edge="1" parent="qHeusrpd8XTAjq42QrKj-1" source="qHeusrpd8XTAjq42QrKj-16" target="qHeusrpd8XTAjq42QrKj-13">
          <mxGeometry relative="1" as="geometry">
            <Array as="points">
              <mxPoint x="690" y="-3130" />
              <mxPoint x="355" y="-3130" />
            </Array>
          </mxGeometry>
        </mxCell>
        <mxCell id="qHeusrpd8XTAjq42QrKj-15" value="/SleepForRefreshDuration" style="edgeLabel;html=1;align=center;verticalAlign=middle;resizable=0;points=[];" vertex="1" connectable="0" parent="qHeusrpd8XTAjq42QrKj-14">
          <mxGeometry x="-0.5828" relative="1" as="geometry">
            <mxPoint x="-18" y="-10" as="offset" />
          </mxGeometry>
        </mxCell>
        <mxCell id="qHeusrpd8XTAjq42QrKj-16" value="&lt;div&gt;&lt;span style=&quot;font-size: 14px;&quot;&gt;RefreshingDisplay&lt;/span&gt;&lt;/div&gt;" style="html=1;align=center;verticalAlign=top;rounded=1;absoluteArcSize=1;arcSize=10;fontFamily=Helvetica;fontSize=12;fontColor=default;strokeColor=default;fillColor=default;" vertex="1" parent="qHeusrpd8XTAjq42QrKj-1">
          <mxGeometry x="610" y="-3090" width="160" height="40" as="geometry" />
        </mxCell>
        <mxCell id="qHeusrpd8XTAjq42QrKj-17" style="edgeStyle=orthogonalEdgeStyle;rounded=0;orthogonalLoop=1;jettySize=auto;html=1;exitX=1;exitY=0.5;exitDx=0;exitDy=0;entryX=0;entryY=0.5;entryDx=0;entryDy=0;" edge="1" parent="qHeusrpd8XTAjq42QrKj-1" source="qHeusrpd8XTAjq42QrKj-18" target="qHeusrpd8XTAjq42QrKj-13">
          <mxGeometry relative="1" as="geometry" />
        </mxCell>
        <mxCell id="qHeusrpd8XTAjq42QrKj-18" value="" style="ellipse;fillColor=#000000;strokeColor=none;" vertex="1" parent="qHeusrpd8XTAjq42QrKj-1">
          <mxGeometry x="170" y="-3085" width="30" height="30" as="geometry" />
        </mxCell>
        <mxCell id="qHeusrpd8XTAjq42QrKj-19" style="edgeStyle=orthogonalEdgeStyle;rounded=0;orthogonalLoop=1;jettySize=auto;html=1;exitX=1;exitY=0.5;exitDx=0;exitDy=0;entryX=0;entryY=0.5;entryDx=0;entryDy=0;" edge="1" parent="qHeusrpd8XTAjq42QrKj-1" source="qHeusrpd8XTAjq42QrKj-20" target="qHeusrpd8XTAjq42QrKj-7">
          <mxGeometry relative="1" as="geometry" />
        </mxCell>
        <mxCell id="qHeusrpd8XTAjq42QrKj-20" value="" style="ellipse;fillColor=#000000;strokeColor=none;" vertex="1" parent="qHeusrpd8XTAjq42QrKj-1">
          <mxGeometry x="65" y="-3105" width="30" height="30" as="geometry" />
        </mxCell>
        <mxCell id="qHeusrpd8XTAjq42QrKj-22" value="" style="ellipse;html=1;shape=endState;fillColor=#000000;strokeColor=#000000;" vertex="1" parent="qHeusrpd8XTAjq42QrKj-1">
          <mxGeometry x="580" y="-2890" width="30" height="30" as="geometry" />
        </mxCell>
      </root>
    </mxGraphModel>
  </diagram>
  <diagram name="SettingProcess" id="u5ZRDdJ29QsrEfkCz90A">
    <mxGraphModel dx="1077" dy="1732" grid="1" gridSize="10" guides="1" tooltips="1" connect="1" arrows="1" fold="1" page="1" pageScale="1" pageWidth="850" pageHeight="1100" math="0" shadow="0">
      <root>
        <mxCell id="FDhMUR8kO0MoIkU4QLGV-0" />
        <mxCell id="FDhMUR8kO0MoIkU4QLGV-1" parent="FDhMUR8kO0MoIkU4QLGV-0" />
        <mxCell id="FDhMUR8kO0MoIkU4QLGV-21" value="Smart Sprouter -&amp;nbsp;&lt;span style=&quot;font-size: 14px; text-align: center; text-wrap: nowrap;&quot;&gt;SettingProcess&amp;nbsp;&lt;/span&gt;- State Machine" style="shape=umlFrame;whiteSpace=wrap;html=1;width=350;height=20;boundedLbl=1;verticalAlign=middle;align=left;spacingLeft=5;fontColor=#000000;fillColor=default;" parent="FDhMUR8kO0MoIkU4QLGV-1" vertex="1">
          <mxGeometry x="45" y="-1060" width="715" height="510" as="geometry" />
        </mxCell>
        <mxCell id="bCez_44vhabWIUZidAdY-11" value="&lt;span style=&quot;&quot;&gt;&lt;font style=&quot;font-size: 14px;&quot;&gt;DisplayingSetupProcess&lt;/font&gt;&lt;br&gt;&lt;br&gt;do /Display(SetupProcess)&lt;br&gt;do /WaitRefreshElapsed&lt;/span&gt;" style="html=1;align=center;verticalAlign=top;rounded=1;absoluteArcSize=1;arcSize=10;fontFamily=Helvetica;fontSize=12;fontColor=default;strokeColor=default;fillColor=default;" vertex="1" parent="FDhMUR8kO0MoIkU4QLGV-1">
          <mxGeometry x="290" y="-890.04" width="160" height="160" as="geometry" />
        </mxCell>
        <mxCell id="bCez_44vhabWIUZidAdY-15" style="edgeStyle=orthogonalEdgeStyle;rounded=0;orthogonalLoop=1;jettySize=auto;html=1;exitX=1;exitY=0.5;exitDx=0;exitDy=0;entryX=0;entryY=0.5;entryDx=0;entryDy=0;" edge="1" parent="FDhMUR8kO0MoIkU4QLGV-1" source="bCez_44vhabWIUZidAdY-16" target="bCez_44vhabWIUZidAdY-11">
          <mxGeometry relative="1" as="geometry" />
        </mxCell>
        <mxCell id="bCez_44vhabWIUZidAdY-16" value="" style="ellipse;fillColor=#000000;strokeColor=none;" vertex="1" parent="FDhMUR8kO0MoIkU4QLGV-1">
          <mxGeometry x="120" y="-825.04" width="30" height="30" as="geometry" />
        </mxCell>
        <mxCell id="eZMm_oEJZQGh4K5Kx69q-8" style="edgeStyle=orthogonalEdgeStyle;rounded=0;orthogonalLoop=1;jettySize=auto;html=1;exitX=1;exitY=0.25;exitDx=0;exitDy=0;entryX=0;entryY=0.5;entryDx=0;entryDy=0;" edge="1" parent="FDhMUR8kO0MoIkU4QLGV-1" target="eZMm_oEJZQGh4K5Kx69q-10" source="bCez_44vhabWIUZidAdY-11">
          <mxGeometry relative="1" as="geometry">
            <mxPoint x="405" y="-730.04" as="sourcePoint" />
            <mxPoint x="600" y="-850.04" as="targetPoint" />
            <Array as="points">
              <mxPoint x="630" y="-850.04" />
            </Array>
          </mxGeometry>
        </mxCell>
        <mxCell id="eZMm_oEJZQGh4K5Kx69q-9" value="input:Enter[&quot;start&quot; label selected]&lt;br&gt;/Trans:Running" style="edgeLabel;html=1;align=center;verticalAlign=middle;resizable=0;points=[];" vertex="1" connectable="0" parent="eZMm_oEJZQGh4K5Kx69q-8">
          <mxGeometry x="-0.7189" y="1" relative="1" as="geometry">
            <mxPoint x="64" y="-14" as="offset" />
          </mxGeometry>
        </mxCell>
        <mxCell id="eZMm_oEJZQGh4K5Kx69q-10" value="" style="ellipse;html=1;shape=endState;fillColor=#000000;strokeColor=#000000;" vertex="1" parent="FDhMUR8kO0MoIkU4QLGV-1">
          <mxGeometry x="635" y="-865.04" width="30" height="30" as="geometry" />
        </mxCell>
        <mxCell id="eZMm_oEJZQGh4K5Kx69q-11" style="edgeStyle=orthogonalEdgeStyle;rounded=0;orthogonalLoop=1;jettySize=auto;html=1;exitX=1;exitY=0.75;exitDx=0;exitDy=0;entryX=0;entryY=0.5;entryDx=0;entryDy=0;" edge="1" parent="FDhMUR8kO0MoIkU4QLGV-1" target="eZMm_oEJZQGh4K5Kx69q-13" source="bCez_44vhabWIUZidAdY-11">
          <mxGeometry relative="1" as="geometry">
            <mxPoint x="450" y="-770.04" as="sourcePoint" />
            <mxPoint x="600" y="-770.04" as="targetPoint" />
            <Array as="points" />
          </mxGeometry>
        </mxCell>
        <mxCell id="eZMm_oEJZQGh4K5Kx69q-12" value="input:Enter[any param selected]&lt;br&gt;/Trans:SettingParam" style="edgeLabel;html=1;align=center;verticalAlign=middle;resizable=0;points=[];" vertex="1" connectable="0" parent="eZMm_oEJZQGh4K5Kx69q-11">
          <mxGeometry x="-0.7189" y="1" relative="1" as="geometry">
            <mxPoint x="64" y="-14" as="offset" />
          </mxGeometry>
        </mxCell>
        <mxCell id="eZMm_oEJZQGh4K5Kx69q-13" value="" style="ellipse;html=1;shape=endState;fillColor=#000000;strokeColor=#000000;" vertex="1" parent="FDhMUR8kO0MoIkU4QLGV-1">
          <mxGeometry x="635" y="-785.04" width="30" height="30" as="geometry" />
        </mxCell>
        <mxCell id="eZMm_oEJZQGh4K5Kx69q-14" style="edgeStyle=orthogonalEdgeStyle;rounded=0;orthogonalLoop=1;jettySize=auto;html=1;exitX=0.25;exitY=0;exitDx=0;exitDy=0;entryX=0.75;entryY=0;entryDx=0;entryDy=0;" edge="1" parent="FDhMUR8kO0MoIkU4QLGV-1" source="bCez_44vhabWIUZidAdY-11" target="bCez_44vhabWIUZidAdY-11">
          <mxGeometry relative="1" as="geometry">
            <Array as="points">
              <mxPoint x="330" y="-970" />
              <mxPoint x="410" y="-970" />
            </Array>
          </mxGeometry>
        </mxCell>
        <mxCell id="eZMm_oEJZQGh4K5Kx69q-16" value="input:Right&lt;br&gt;/SelectNextParam" style="edgeLabel;html=1;align=center;verticalAlign=middle;resizable=0;points=[];" vertex="1" connectable="0" parent="eZMm_oEJZQGh4K5Kx69q-14">
          <mxGeometry x="0.0259" y="2" relative="1" as="geometry">
            <mxPoint y="-18" as="offset" />
          </mxGeometry>
        </mxCell>
        <mxCell id="eZMm_oEJZQGh4K5Kx69q-15" style="edgeStyle=orthogonalEdgeStyle;rounded=0;orthogonalLoop=1;jettySize=auto;html=1;exitX=0.75;exitY=1;exitDx=0;exitDy=0;entryX=0.25;entryY=1;entryDx=0;entryDy=0;" edge="1" parent="FDhMUR8kO0MoIkU4QLGV-1" source="bCez_44vhabWIUZidAdY-11" target="bCez_44vhabWIUZidAdY-11">
          <mxGeometry relative="1" as="geometry">
            <Array as="points">
              <mxPoint x="410" y="-650" />
              <mxPoint x="330" y="-650" />
            </Array>
          </mxGeometry>
        </mxCell>
        <mxCell id="eZMm_oEJZQGh4K5Kx69q-17" value="input:Left&lt;br&gt;/SelectPrevParam" style="edgeLabel;html=1;align=center;verticalAlign=middle;resizable=0;points=[];" vertex="1" connectable="0" parent="eZMm_oEJZQGh4K5Kx69q-15">
          <mxGeometry x="0.0173" y="2" relative="1" as="geometry">
            <mxPoint x="2" y="18" as="offset" />
          </mxGeometry>
        </mxCell>
      </root>
    </mxGraphModel>
  </diagram>
  <diagram name="SettingParam" id="Cx4U9CRynPyjxAi1pBJz">
    <mxGraphModel dx="1077" dy="1732" grid="1" gridSize="10" guides="1" tooltips="1" connect="1" arrows="1" fold="1" page="1" pageScale="1" pageWidth="850" pageHeight="1100" math="0" shadow="0">
      <root>
        <mxCell id="_cN2Di3fVRMW2vj5c9wt-0" />
        <mxCell id="_cN2Di3fVRMW2vj5c9wt-1" parent="_cN2Di3fVRMW2vj5c9wt-0" />
        <mxCell id="N6GxRDlfJ_Re6EAcsIl3-0" value="&lt;span style=&quot;text-align: center; background-color: initial;&quot;&gt;Smart Sprouter -&amp;nbsp;&lt;/span&gt;&lt;span style=&quot;text-align: center; text-wrap: nowrap; background-color: initial; font-size: 14px;&quot;&gt;SettingParameter&amp;nbsp;&lt;/span&gt;&lt;span style=&quot;text-align: center; background-color: initial;&quot;&gt;- State Machine&lt;/span&gt;" style="shape=umlFrame;whiteSpace=wrap;html=1;width=350;height=20;boundedLbl=1;verticalAlign=middle;align=left;spacingLeft=5;fontColor=#000000;fillColor=default;" vertex="1" parent="_cN2Di3fVRMW2vj5c9wt-1">
          <mxGeometry x="30" y="-1070" width="560" height="440" as="geometry" />
        </mxCell>
        <mxCell id="N6GxRDlfJ_Re6EAcsIl3-1" value="&lt;span style=&quot;&quot;&gt;&lt;font style=&quot;font-size: 14px;&quot;&gt;DisplayingSetupParam&lt;/font&gt;&lt;br&gt;&lt;br&gt;do /Display(SetupPage)&lt;br&gt;do /WaitRefreshElapsed&lt;/span&gt;" style="html=1;align=center;verticalAlign=top;rounded=1;absoluteArcSize=1;arcSize=10;fontFamily=Helvetica;fontSize=12;fontColor=default;strokeColor=default;fillColor=default;" vertex="1" parent="_cN2Di3fVRMW2vj5c9wt-1">
          <mxGeometry x="215" y="-900.04" width="160" height="80.04" as="geometry" />
        </mxCell>
        <mxCell id="N6GxRDlfJ_Re6EAcsIl3-2" style="edgeStyle=orthogonalEdgeStyle;rounded=0;orthogonalLoop=1;jettySize=auto;html=1;exitX=1;exitY=0.5;exitDx=0;exitDy=0;entryX=0;entryY=0.5;entryDx=0;entryDy=0;" edge="1" parent="_cN2Di3fVRMW2vj5c9wt-1" source="N6GxRDlfJ_Re6EAcsIl3-3" target="N6GxRDlfJ_Re6EAcsIl3-1">
          <mxGeometry relative="1" as="geometry" />
        </mxCell>
        <mxCell id="N6GxRDlfJ_Re6EAcsIl3-3" value="" style="ellipse;fillColor=#000000;strokeColor=none;" vertex="1" parent="_cN2Di3fVRMW2vj5c9wt-1">
          <mxGeometry x="100" y="-875.02" width="30" height="30" as="geometry" />
        </mxCell>
        <mxCell id="N6GxRDlfJ_Re6EAcsIl3-4" style="edgeStyle=orthogonalEdgeStyle;rounded=0;orthogonalLoop=1;jettySize=auto;html=1;exitX=1;exitY=0.5;exitDx=0;exitDy=0;entryX=0;entryY=0.5;entryDx=0;entryDy=0;" edge="1" parent="_cN2Di3fVRMW2vj5c9wt-1" source="N6GxRDlfJ_Re6EAcsIl3-1" target="N6GxRDlfJ_Re6EAcsIl3-6">
          <mxGeometry relative="1" as="geometry">
            <mxPoint x="375" y="-890" as="sourcePoint" />
            <mxPoint x="520" y="-849.96" as="targetPoint" />
            <Array as="points" />
          </mxGeometry>
        </mxCell>
        <mxCell id="N6GxRDlfJ_Re6EAcsIl3-5" value="input:Enter&lt;br&gt;/Trans:SettingProcess" style="edgeLabel;html=1;align=center;verticalAlign=middle;resizable=0;points=[];" vertex="1" connectable="0" parent="N6GxRDlfJ_Re6EAcsIl3-4">
          <mxGeometry x="-0.7189" y="1" relative="1" as="geometry">
            <mxPoint x="44" y="-14" as="offset" />
          </mxGeometry>
        </mxCell>
        <mxCell id="N6GxRDlfJ_Re6EAcsIl3-6" value="" style="ellipse;html=1;shape=endState;fillColor=#000000;strokeColor=#000000;" vertex="1" parent="_cN2Di3fVRMW2vj5c9wt-1">
          <mxGeometry x="520" y="-875.02" width="30" height="30" as="geometry" />
        </mxCell>
        <mxCell id="N6GxRDlfJ_Re6EAcsIl3-10" style="edgeStyle=orthogonalEdgeStyle;rounded=0;orthogonalLoop=1;jettySize=auto;html=1;exitX=0.25;exitY=0;exitDx=0;exitDy=0;entryX=0.75;entryY=0;entryDx=0;entryDy=0;" edge="1" parent="_cN2Di3fVRMW2vj5c9wt-1" source="N6GxRDlfJ_Re6EAcsIl3-1" target="N6GxRDlfJ_Re6EAcsIl3-1">
          <mxGeometry relative="1" as="geometry">
            <Array as="points">
              <mxPoint x="255" y="-980" />
              <mxPoint x="335" y="-980" />
            </Array>
          </mxGeometry>
        </mxCell>
        <mxCell id="N6GxRDlfJ_Re6EAcsIl3-11" value="input:Right&lt;br&gt;/IncSelectParamValue" style="edgeLabel;html=1;align=center;verticalAlign=middle;resizable=0;points=[];" vertex="1" connectable="0" parent="N6GxRDlfJ_Re6EAcsIl3-10">
          <mxGeometry x="0.0259" y="2" relative="1" as="geometry">
            <mxPoint y="-18" as="offset" />
          </mxGeometry>
        </mxCell>
        <mxCell id="N6GxRDlfJ_Re6EAcsIl3-12" style="edgeStyle=orthogonalEdgeStyle;rounded=0;orthogonalLoop=1;jettySize=auto;html=1;exitX=0.75;exitY=1;exitDx=0;exitDy=0;entryX=0.25;entryY=1;entryDx=0;entryDy=0;" edge="1" parent="_cN2Di3fVRMW2vj5c9wt-1" source="N6GxRDlfJ_Re6EAcsIl3-1" target="N6GxRDlfJ_Re6EAcsIl3-1">
          <mxGeometry relative="1" as="geometry">
            <Array as="points">
              <mxPoint x="335" y="-740" />
              <mxPoint x="255" y="-740" />
            </Array>
          </mxGeometry>
        </mxCell>
        <mxCell id="N6GxRDlfJ_Re6EAcsIl3-13" value="input:Left&lt;br&gt;/DecSelectParamValue" style="edgeLabel;html=1;align=center;verticalAlign=middle;resizable=0;points=[];" vertex="1" connectable="0" parent="N6GxRDlfJ_Re6EAcsIl3-12">
          <mxGeometry x="0.0173" y="2" relative="1" as="geometry">
            <mxPoint x="2" y="18" as="offset" />
          </mxGeometry>
        </mxCell>
      </root>
    </mxGraphModel>
  </diagram>
  <diagram name="Running" id="L3i76ElQJjdjCGGuyOkV">
    <mxGraphModel dx="1838" dy="3279" grid="1" gridSize="10" guides="1" tooltips="1" connect="1" arrows="1" fold="1" page="1" pageScale="1" pageWidth="850" pageHeight="1100" math="0" shadow="0">
      <root>
        <mxCell id="Tc-7AFv70PuoF69vyDZJ-0" />
        <mxCell id="Tc-7AFv70PuoF69vyDZJ-1" parent="Tc-7AFv70PuoF69vyDZJ-0" />
        <mxCell id="Tc-7AFv70PuoF69vyDZJ-21" value="Smart Sprouter - Running - State Machine" style="shape=umlFrame;whiteSpace=wrap;html=1;width=350;height=20;boundedLbl=1;verticalAlign=middle;align=left;spacingLeft=5;fontColor=#000000;fillColor=default;" parent="Tc-7AFv70PuoF69vyDZJ-1" vertex="1">
          <mxGeometry x="40" y="-2160" width="1610" height="490" as="geometry" />
        </mxCell>
        <mxCell id="Xkz6jPnYvyd2mZnNLVDg-1" style="edgeStyle=orthogonalEdgeStyle;rounded=0;orthogonalLoop=1;jettySize=auto;html=1;exitX=0.25;exitY=1;exitDx=0;exitDy=0;entryX=0;entryY=0.5;entryDx=0;entryDy=0;" parent="Tc-7AFv70PuoF69vyDZJ-1" source="Xkz6jPnYvyd2mZnNLVDg-5" target="Xkz6jPnYvyd2mZnNLVDg-19" edge="1">
          <mxGeometry relative="1" as="geometry">
            <Array as="points">
              <mxPoint x="499" y="-1720" />
              <mxPoint x="705" y="-1720" />
            </Array>
          </mxGeometry>
        </mxCell>
        <mxCell id="Xkz6jPnYvyd2mZnNLVDg-2" value="input:Back&lt;br&gt;/Trans:Abort" style="edgeLabel;html=1;align=center;verticalAlign=middle;resizable=0;points=[];" parent="Xkz6jPnYvyd2mZnNLVDg-1" vertex="1" connectable="0">
          <mxGeometry x="-0.7169" y="-2" relative="1" as="geometry">
            <mxPoint x="38" y="-10" as="offset" />
          </mxGeometry>
        </mxCell>
        <mxCell id="Xkz6jPnYvyd2mZnNLVDg-5" value="Running" style="html=1;align=center;verticalAlign=top;rounded=1;absoluteArcSize=1;arcSize=10;dashed=0;fillColor=none;" parent="Tc-7AFv70PuoF69vyDZJ-1" vertex="1">
          <mxGeometry x="142.5" y="-2050" width="1467.5" height="240" as="geometry" />
        </mxCell>
        <mxCell id="Xkz6jPnYvyd2mZnNLVDg-6" style="edgeStyle=orthogonalEdgeStyle;rounded=0;orthogonalLoop=1;jettySize=auto;html=1;entryX=0;entryY=0.5;entryDx=0;entryDy=0;exitX=1;exitY=0.5;exitDx=0;exitDy=0;" parent="Tc-7AFv70PuoF69vyDZJ-1" source="FhJJf6X5yNicjFzue8fC-1" target="Xkz6jPnYvyd2mZnNLVDg-14" edge="1">
          <mxGeometry relative="1" as="geometry">
            <mxPoint x="1370" y="-1910" as="sourcePoint" />
          </mxGeometry>
        </mxCell>
        <mxCell id="Xkz6jPnYvyd2mZnNLVDg-7" value="/UpdateRunningPage&lt;br&gt;/Display(RunningPage)" style="edgeLabel;html=1;align=center;verticalAlign=middle;resizable=0;points=[];" parent="Xkz6jPnYvyd2mZnNLVDg-6" vertex="1" connectable="0">
          <mxGeometry x="-0.2333" y="1" relative="1" as="geometry">
            <mxPoint x="18" y="21" as="offset" />
          </mxGeometry>
        </mxCell>
        <mxCell id="FhJJf6X5yNicjFzue8fC-2" style="edgeStyle=orthogonalEdgeStyle;rounded=0;orthogonalLoop=1;jettySize=auto;html=1;exitX=1;exitY=0.5;exitDx=0;exitDy=0;entryX=0;entryY=0.5;entryDx=0;entryDy=0;" parent="Tc-7AFv70PuoF69vyDZJ-1" source="Xkz6jPnYvyd2mZnNLVDg-8" target="FhJJf6X5yNicjFzue8fC-0" edge="1">
          <mxGeometry relative="1" as="geometry" />
        </mxCell>
        <mxCell id="FhJJf6X5yNicjFzue8fC-3" value="/CalculateDecision" style="edgeLabel;html=1;align=center;verticalAlign=middle;resizable=0;points=[];" parent="FhJJf6X5yNicjFzue8fC-2" vertex="1" connectable="0">
          <mxGeometry x="-0.2103" relative="1" as="geometry">
            <mxPoint x="7" y="10" as="offset" />
          </mxGeometry>
        </mxCell>
        <mxCell id="Xkz6jPnYvyd2mZnNLVDg-8" value="&lt;div&gt;&lt;span style=&quot;font-size: 14px;&quot;&gt;ReadingSensors&lt;/span&gt;&lt;/div&gt;" style="html=1;align=center;verticalAlign=top;rounded=1;absoluteArcSize=1;arcSize=10;fontFamily=Helvetica;fontSize=12;fontColor=default;strokeColor=default;fillColor=default;" parent="Tc-7AFv70PuoF69vyDZJ-1" vertex="1">
          <mxGeometry x="530" y="-1930" width="160" height="40" as="geometry" />
        </mxCell>
        <mxCell id="Xkz6jPnYvyd2mZnNLVDg-9" style="edgeStyle=orthogonalEdgeStyle;rounded=0;orthogonalLoop=1;jettySize=auto;html=1;exitX=1;exitY=0.5;exitDx=0;exitDy=0;entryX=0;entryY=0.5;entryDx=0;entryDy=0;" parent="Tc-7AFv70PuoF69vyDZJ-1" source="Xkz6jPnYvyd2mZnNLVDg-11" target="Xkz6jPnYvyd2mZnNLVDg-8" edge="1">
          <mxGeometry relative="1" as="geometry" />
        </mxCell>
        <mxCell id="Xkz6jPnYvyd2mZnNLVDg-10" value="refresh duration elapsed&lt;br&gt;/ReadSensors" style="edgeLabel;html=1;align=center;verticalAlign=middle;resizable=0;points=[];" parent="Xkz6jPnYvyd2mZnNLVDg-9" vertex="1" connectable="0">
          <mxGeometry x="-0.6608" y="1" relative="1" as="geometry">
            <mxPoint x="40" y="21" as="offset" />
          </mxGeometry>
        </mxCell>
        <mxCell id="Xkz6jPnYvyd2mZnNLVDg-11" value="&lt;span style=&quot;font-size: 14px;&quot;&gt;RefreshSleeping&lt;/span&gt;" style="html=1;align=center;verticalAlign=top;rounded=1;absoluteArcSize=1;arcSize=10;fontFamily=Helvetica;fontSize=12;fontColor=default;strokeColor=default;fillColor=default;" parent="Tc-7AFv70PuoF69vyDZJ-1" vertex="1">
          <mxGeometry x="250" y="-1930" width="160" height="40" as="geometry" />
        </mxCell>
        <mxCell id="Xkz6jPnYvyd2mZnNLVDg-12" style="edgeStyle=orthogonalEdgeStyle;rounded=0;orthogonalLoop=1;jettySize=auto;html=1;exitX=0.5;exitY=0;exitDx=0;exitDy=0;entryX=0.5;entryY=0;entryDx=0;entryDy=0;" parent="Tc-7AFv70PuoF69vyDZJ-1" source="Xkz6jPnYvyd2mZnNLVDg-14" target="Xkz6jPnYvyd2mZnNLVDg-11" edge="1">
          <mxGeometry relative="1" as="geometry">
            <Array as="points">
              <mxPoint x="1510" y="-1970" />
              <mxPoint x="330" y="-1970" />
            </Array>
          </mxGeometry>
        </mxCell>
        <mxCell id="Xkz6jPnYvyd2mZnNLVDg-13" value="/SleepForRefreshDuration" style="edgeLabel;html=1;align=center;verticalAlign=middle;resizable=0;points=[];" parent="Xkz6jPnYvyd2mZnNLVDg-12" vertex="1" connectable="0">
          <mxGeometry x="-0.5828" relative="1" as="geometry">
            <mxPoint x="153" y="-10" as="offset" />
          </mxGeometry>
        </mxCell>
        <mxCell id="Xkz6jPnYvyd2mZnNLVDg-14" value="&lt;div&gt;&lt;span style=&quot;font-size: 14px;&quot;&gt;RefreshingDisplay&lt;/span&gt;&lt;/div&gt;" style="html=1;align=center;verticalAlign=top;rounded=1;absoluteArcSize=1;arcSize=10;fontFamily=Helvetica;fontSize=12;fontColor=default;strokeColor=default;fillColor=default;" parent="Tc-7AFv70PuoF69vyDZJ-1" vertex="1">
          <mxGeometry x="1430" y="-1930" width="160" height="40" as="geometry" />
        </mxCell>
        <mxCell id="Xkz6jPnYvyd2mZnNLVDg-15" style="edgeStyle=orthogonalEdgeStyle;rounded=0;orthogonalLoop=1;jettySize=auto;html=1;exitX=1;exitY=0.5;exitDx=0;exitDy=0;entryX=0;entryY=0.5;entryDx=0;entryDy=0;" parent="Tc-7AFv70PuoF69vyDZJ-1" source="Xkz6jPnYvyd2mZnNLVDg-16" target="Xkz6jPnYvyd2mZnNLVDg-11" edge="1">
          <mxGeometry relative="1" as="geometry" />
        </mxCell>
        <mxCell id="Xkz6jPnYvyd2mZnNLVDg-16" value="" style="ellipse;fillColor=#000000;strokeColor=none;" parent="Tc-7AFv70PuoF69vyDZJ-1" vertex="1">
          <mxGeometry x="165" y="-1925" width="30" height="30" as="geometry" />
        </mxCell>
        <mxCell id="Xkz6jPnYvyd2mZnNLVDg-17" style="edgeStyle=orthogonalEdgeStyle;rounded=0;orthogonalLoop=1;jettySize=auto;html=1;exitX=1;exitY=0.5;exitDx=0;exitDy=0;entryX=0;entryY=0.5;entryDx=0;entryDy=0;" parent="Tc-7AFv70PuoF69vyDZJ-1" source="Xkz6jPnYvyd2mZnNLVDg-18" target="Xkz6jPnYvyd2mZnNLVDg-5" edge="1">
          <mxGeometry relative="1" as="geometry" />
        </mxCell>
        <mxCell id="Xkz6jPnYvyd2mZnNLVDg-18" value="" style="ellipse;fillColor=#000000;strokeColor=none;" parent="Tc-7AFv70PuoF69vyDZJ-1" vertex="1">
          <mxGeometry x="60" y="-1945" width="30" height="30" as="geometry" />
        </mxCell>
        <mxCell id="Xkz6jPnYvyd2mZnNLVDg-19" value="" style="ellipse;html=1;shape=endState;fillColor=#000000;strokeColor=#000000;" parent="Tc-7AFv70PuoF69vyDZJ-1" vertex="1">
          <mxGeometry x="705" y="-1740" width="30" height="30" as="geometry" />
        </mxCell>
        <mxCell id="FhJJf6X5yNicjFzue8fC-4" style="edgeStyle=orthogonalEdgeStyle;rounded=0;orthogonalLoop=1;jettySize=auto;html=1;exitX=1;exitY=0.5;exitDx=0;exitDy=0;entryX=0;entryY=0.5;entryDx=0;entryDy=0;" parent="Tc-7AFv70PuoF69vyDZJ-1" source="FhJJf6X5yNicjFzue8fC-0" target="FhJJf6X5yNicjFzue8fC-1" edge="1">
          <mxGeometry relative="1" as="geometry" />
        </mxCell>
        <mxCell id="FhJJf6X5yNicjFzue8fC-5" value="/AdjustActuators" style="edgeLabel;html=1;align=center;verticalAlign=middle;resizable=0;points=[];" parent="FhJJf6X5yNicjFzue8fC-4" vertex="1" connectable="0">
          <mxGeometry x="-0.2487" y="-1" relative="1" as="geometry">
            <mxPoint x="5" y="9" as="offset" />
          </mxGeometry>
        </mxCell>
        <mxCell id="FhJJf6X5yNicjFzue8fC-0" value="&lt;div&gt;&lt;span style=&quot;font-size: 14px;&quot;&gt;MakingDecisions&lt;/span&gt;&lt;/div&gt;" style="html=1;align=center;verticalAlign=top;rounded=1;absoluteArcSize=1;arcSize=10;fontFamily=Helvetica;fontSize=12;fontColor=default;strokeColor=default;fillColor=default;" parent="Tc-7AFv70PuoF69vyDZJ-1" vertex="1">
          <mxGeometry x="810" y="-1930" width="160" height="40" as="geometry" />
        </mxCell>
        <mxCell id="FhJJf6X5yNicjFzue8fC-1" value="&lt;div&gt;&lt;span style=&quot;font-size: 14px;&quot;&gt;AdjustingActuators&lt;/span&gt;&lt;/div&gt;" style="html=1;align=center;verticalAlign=top;rounded=1;absoluteArcSize=1;arcSize=10;fontFamily=Helvetica;fontSize=12;fontColor=default;strokeColor=default;fillColor=default;" parent="Tc-7AFv70PuoF69vyDZJ-1" vertex="1">
          <mxGeometry x="1090" y="-1930" width="160" height="40" as="geometry" />
        </mxCell>
      </root>
    </mxGraphModel>
  </diagram>
  <diagram name="Aborting" id="8S_to55ve3AJg4ny3uLI">
    <mxGraphModel dx="1562" dy="2017" grid="1" gridSize="10" guides="1" tooltips="1" connect="1" arrows="1" fold="1" page="1" pageScale="1" pageWidth="850" pageHeight="1100" math="0" shadow="0">
      <root>
        <mxCell id="WB0dPYyXrrqWpFfzZX0O-0" />
        <mxCell id="WB0dPYyXrrqWpFfzZX0O-1" parent="WB0dPYyXrrqWpFfzZX0O-0" />
        <mxCell id="WB0dPYyXrrqWpFfzZX0O-21" value="Smart Sprouter - Aborting - State Machine" style="shape=umlFrame;whiteSpace=wrap;html=1;width=350;height=20;boundedLbl=1;verticalAlign=middle;align=left;spacingLeft=5;fontColor=#000000;fillColor=default;" parent="WB0dPYyXrrqWpFfzZX0O-1" vertex="1">
          <mxGeometry x="70" y="-1070" width="540" height="340" as="geometry" />
        </mxCell>
        <mxCell id="OXN53C7AZ-9BHcrLYryb-1" value="&lt;span style=&quot;&quot;&gt;&lt;font style=&quot;font-size: 14px;&quot;&gt;DisplayingAbort&lt;/font&gt;&lt;br&gt;do /Display(AbortPage)&lt;br&gt;do /WaitRefreshElapsed&lt;/span&gt;" style="html=1;align=center;verticalAlign=top;rounded=1;absoluteArcSize=1;arcSize=10;fontFamily=Helvetica;fontSize=12;fontColor=default;strokeColor=default;fillColor=default;" parent="WB0dPYyXrrqWpFfzZX0O-1" vertex="1">
          <mxGeometry x="220" y="-980" width="160" height="180" as="geometry" />
        </mxCell>
        <mxCell id="OXN53C7AZ-9BHcrLYryb-2" style="edgeStyle=orthogonalEdgeStyle;rounded=0;orthogonalLoop=1;jettySize=auto;html=1;exitX=1;exitY=0.5;exitDx=0;exitDy=0;entryX=0;entryY=0.5;entryDx=0;entryDy=0;" parent="WB0dPYyXrrqWpFfzZX0O-1" source="OXN53C7AZ-9BHcrLYryb-3" target="OXN53C7AZ-9BHcrLYryb-1" edge="1">
          <mxGeometry relative="1" as="geometry" />
        </mxCell>
        <mxCell id="OXN53C7AZ-9BHcrLYryb-3" value="" style="ellipse;fillColor=#000000;strokeColor=none;" parent="WB0dPYyXrrqWpFfzZX0O-1" vertex="1">
          <mxGeometry x="120" y="-905" width="30" height="30" as="geometry" />
        </mxCell>
        <mxCell id="OXN53C7AZ-9BHcrLYryb-4" style="edgeStyle=orthogonalEdgeStyle;rounded=0;orthogonalLoop=1;jettySize=auto;html=1;exitX=1;exitY=0.25;exitDx=0;exitDy=0;entryX=0;entryY=0.5;entryDx=0;entryDy=0;" parent="WB0dPYyXrrqWpFfzZX0O-1" source="OXN53C7AZ-9BHcrLYryb-1" target="OXN53C7AZ-9BHcrLYryb-6" edge="1">
          <mxGeometry relative="1" as="geometry">
            <mxPoint x="375" y="-980" as="sourcePoint" />
            <mxPoint x="520" y="-939.96" as="targetPoint" />
            <Array as="points" />
          </mxGeometry>
        </mxCell>
        <mxCell id="OXN53C7AZ-9BHcrLYryb-5" value="input:Enter&lt;br&gt;/DestroyProcess&lt;br&gt;/Trans:Idle" style="edgeLabel;html=1;align=center;verticalAlign=middle;resizable=0;points=[];" parent="OXN53C7AZ-9BHcrLYryb-4" vertex="1" connectable="0">
          <mxGeometry x="-0.7189" y="1" relative="1" as="geometry">
            <mxPoint x="44" y="-24" as="offset" />
          </mxGeometry>
        </mxCell>
        <mxCell id="OXN53C7AZ-9BHcrLYryb-6" value="" style="ellipse;html=1;shape=endState;fillColor=#000000;strokeColor=#000000;" parent="WB0dPYyXrrqWpFfzZX0O-1" vertex="1">
          <mxGeometry x="500" y="-950" width="30" height="30" as="geometry" />
        </mxCell>
        <mxCell id="LBxZwrFnbD3sJnYGx-0n-0" style="edgeStyle=orthogonalEdgeStyle;rounded=0;orthogonalLoop=1;jettySize=auto;html=1;exitX=1;exitY=0.75;exitDx=0;exitDy=0;entryX=0;entryY=0.5;entryDx=0;entryDy=0;" parent="WB0dPYyXrrqWpFfzZX0O-1" source="OXN53C7AZ-9BHcrLYryb-1" target="LBxZwrFnbD3sJnYGx-0n-2" edge="1">
          <mxGeometry relative="1" as="geometry">
            <mxPoint x="380" y="-845" as="sourcePoint" />
            <mxPoint x="520" y="-849.96" as="targetPoint" />
            <Array as="points" />
          </mxGeometry>
        </mxCell>
        <mxCell id="LBxZwrFnbD3sJnYGx-0n-1" value="input:Back&lt;br&gt;/Trans:Running" style="edgeLabel;html=1;align=center;verticalAlign=middle;resizable=0;points=[];" parent="LBxZwrFnbD3sJnYGx-0n-0" vertex="1" connectable="0">
          <mxGeometry x="-0.7189" y="1" relative="1" as="geometry">
            <mxPoint x="44" y="-24" as="offset" />
          </mxGeometry>
        </mxCell>
        <mxCell id="LBxZwrFnbD3sJnYGx-0n-2" value="" style="ellipse;html=1;shape=endState;fillColor=#000000;strokeColor=#000000;" parent="WB0dPYyXrrqWpFfzZX0O-1" vertex="1">
          <mxGeometry x="500" y="-860" width="30" height="30" as="geometry" />
        </mxCell>
      </root>
    </mxGraphModel>
  </diagram>
</mxfile>
